<?xml version="1.0"?>

<svg version="1.1" id="Слой_1" xmlns="http://www.w3.org/2000/svg" xmlns:xlink="http://www.w3.org/1999/xlink" x="0px" y="0px" viewBox="0 0 350 284" style="enable-background:new 0 0 350 284;" xml:space="preserve">

<g id="Emirates_Stadium">
&#x9;<g id="Emirates_Stadium_x5F_2">
&#x9;&#x9;<g id="LowerTier">
&#x9;&#x9;&#x9;<path id="id_1" class="st0" d="M156.6,218.1h18.1v-25.8h-17.4L156.6,218.1z"></path>
&#x9;&#x9;&#x9;<path id="id_2" class="st0" d="M140.4,218.1h16.2l0.7-25.8h-15.4L140.4,218.1z"></path>
&#x9;&#x9;&#x9;<path id="id_3" class="st0" d="M122.6,218.1h17.8l1.5-25.8h-15.6L122.6,218.1z"></path>
&#x9;&#x9;&#x9;<path id="id_4" class="st0" d="M101.4,212.9c6.6,3.3,13.8,5,21.2,5.1l3.6-25.8h-2.2c-3.9,0-7.8-0.9-11.4-2.7L101.4,212.9z"></path>
&#x9;&#x9;&#x9;<path id="id_5" class="st0" d="M83.1,197.1c4.7,6.7,11,12.2,18.4,15.9l11.3-23.5c-3.9-2-7.1-4.9-9.5-8.5L83.1,197.1z"></path>
&#x9;&#x9;&#x9;<path id="id_6" class="st0" d="M75.4,179.1c1.3,6.5,3.9,12.6,7.7,18l20.1-16.2c-1.6-2.4-2.7-5.1-3.4-7.9L75.4,179.1z"></path>
&#x9;&#x9;&#x9;<path id="id_7" class="st0" d="M74.5,161.1v8.7c0,3.1,0.3,6.2,0.9,9.3l24.4-6.1c-0.4-1.8-0.6-3.7-0.6-5.6v-7.6L74.5,161.1z"></path>
&#x9;&#x9;&#x9;<path id="id_8" class="st0" d="M99.2,159.8V142H74.5v19.1L99.2,159.8z"></path>
&#x9;&#x9;&#x9;<path id="id_9" class="st0" d="M99.2,124.2V142H74.5v-19.1L99.2,124.2z"></path>
&#x9;&#x9;&#x9;<path id="id_10" class="st0" d="M74.5,122.9v-8.7c0-3.1,0.3-6.2,0.9-9.3l24.4,6.1c-0.4,1.8-0.6,3.7-0.6,5.6v7.6L74.5,122.9z"></path>
&#x9;&#x9;&#x9;<path id="id_11" class="st0" d="M75.4,104.9c1.3-6.5,3.9-12.6,7.7-18l20.1,16.2c-1.6,2.4-2.7,5.1-3.4,7.9L75.4,104.9z"></path>
&#x9;&#x9;&#x9;<path id="id_12" class="st0" d="M83.1,86.9c4.7-6.7,11-12.2,18.4-15.9l11.3,23.5c-3.9,2-7.1,4.9-9.5,8.5L83.1,86.9z"></path>
&#x9;&#x9;&#x9;<path id="id_13" class="st0" d="M101.4,71c6.6-3.3,13.8-5,21.2-5.1l3.6,25.8h-2.2c-3.9,0-7.8,0.9-11.4,2.7L101.4,71z"></path>
&#x9;&#x9;&#x9;<path id="id_14" class="st0" d="M122.6,66h17.8l1.5,25.8h-15.6L122.6,66z"></path>
&#x9;&#x9;&#x9;<path id="id_15" class="st0" d="M140.4,66h16.2l0.7,25.8h-15.4L140.4,66z"></path>
&#x9;&#x9;&#x9;<path id="id_16" class="st0" d="M156.6,66h18.1v25.8h-17.4L156.6,66z"></path>
&#x9;&#x9;&#x9;<path id="id_17" class="st0" d="M192.8,66h-18.1v25.8h17.4L192.8,66z"></path>
&#x9;&#x9;&#x9;<path id="id_18" class="st0" d="M209,66h-16.2l-0.7,25.8h15.4L209,66z"></path>
&#x9;&#x9;&#x9;<path id="id_19" class="st0" d="M226.8,66H209l-1.5,25.8h15.6L226.8,66z"></path>
&#x9;&#x9;&#x9;<path id="id_20" class="st0" d="M248,71c-6.6-3.3-13.8-5-21.2-5.1l-3.7,25.8h2.2c3.9,0,7.8,0.9,11.4,2.7L248,71z"></path>
&#x9;&#x9;&#x9;<path id="id_21" class="st0" d="M266.4,86.9c-4.7-6.7-11-12.2-18.4-15.9l-11.3,23.5c3.9,2,7.1,4.9,9.5,8.5L266.4,86.9z"></path>
&#x9;&#x9;&#x9;<path id="id_22" class="st0" d="M274,104.9c-1.3-6.5-3.9-12.6-7.7-18l-20.1,16.2c1.6,2.4,2.7,5.1,3.4,7.9L274,104.9z"></path>
&#x9;&#x9;&#x9;<path id="id_23" class="st0" d="M274.9,122.9v-8.7c0-3.1-0.3-6.2-0.9-9.3l-24.4,6.1c0.4,1.8,0.6,3.7,0.6,5.6v7.6L274.9,122.9z"></path>
&#x9;&#x9;&#x9;<path id="id_24" class="st0" d="M250.3,124.2V142h24.6v-19.1L250.3,124.2z"></path>
&#x9;&#x9;&#x9;<path id="id_25" class="st0" d="M250.3,159.8V142h24.6v19.1L250.3,159.8z"></path>
&#x9;&#x9;&#x9;<path id="id_26" class="st0" d="M274.9,161.1v8.7c0,3.1-0.3,6.2-0.9,9.3l-24.4-6.1c0.4-1.8,0.6-3.7,0.6-5.6v-7.6L274.9,161.1z"></path>
&#x9;&#x9;&#x9;<path id="id_27" class="st0" d="M274,179.1c-1.3,6.5-3.9,12.6-7.7,18l-20.1-16.2c1.6-2.4,2.7-5.1,3.4-7.9L274,179.1z"></path>
&#x9;&#x9;&#x9;<path id="id_28" class="st0" d="M266.4,197.1c-4.7,6.7-11,12.2-18.4,15.9l-11.3-23.5c3.9-2,7.1-4.9,9.5-8.5L266.4,197.1z"></path>
&#x9;&#x9;&#x9;<path id="id_29" class="st0" d="M248,212.9c-6.6,3.3-13.8,5-21.2,5.1l-3.7-25.8h2.2c3.9,0,7.8-0.9,11.4-2.7L248,212.9z"></path>
&#x9;&#x9;&#x9;<path id="id_30" class="st0" d="M226.8,218.1H209l-1.5-25.8h15.6L226.8,218.1z"></path>
&#x9;&#x9;&#x9;<path id="id_31" class="st0" d="M209,218.1h-16.2l-0.7-25.8h15.4L209,218.1z"></path>
&#x9;&#x9;&#x9;<path id="id_32" class="st0" d="M192.8,218.1h-18.1v-25.8h17.4L192.8,218.1z"></path>
&#x9;&#x9;&#x9;<g id="LowerTier_Numbers">
&#x9;&#x9;&#x9;&#x9;<text transform="matrix(1 -2.094394e-03 2.094394e-03 1 164.3711 207.9612)" class="st1 st2 st3">1</text>
&#x9;&#x9;&#x9;&#x9;<text transform="matrix(1 -2.094394e-03 2.094394e-03 1 147.2985 207.9606)" class="st1 st2 st3">2</text>
&#x9;&#x9;&#x9;&#x9;<text transform="matrix(1 -2.094394e-03 2.094394e-03 1 131.4515 207.9606)" class="st1 st2 st3">3</text>
&#x9;&#x9;&#x9;&#x9;<text transform="matrix(1 -2.094394e-03 2.094394e-03 1 113.5363 206.7663)" class="st1 st2 st3">4</text>
&#x9;&#x9;&#x9;&#x9;<text transform="matrix(1 -2.094394e-03 2.094394e-03 1 97.3743 199.8726)" class="st1 st2 st3">5</text>
&#x9;&#x9;&#x9;&#x9;<text transform="matrix(1 -2.094394e-03 2.094394e-03 1 87.1285 185.5629)" class="st1 st2 st3">6</text>
&#x9;&#x9;&#x9;&#x9;<text transform="matrix(1 -2.094394e-03 2.094394e-03 1 85.0736 170.9398)" class="st1 st2 st3">7</text>
&#x9;&#x9;&#x9;&#x9;<text transform="matrix(1 -2.094394e-03 2.094394e-03 1 84.9102 153.5791)" class="st1 st2 st3">8</text>
&#x9;&#x9;&#x9;&#x9;<text transform="matrix(1 -2.094394e-03 2.094394e-03 1 85.0041 135.8899)" class="st1 st2 st3">9</text>
&#x9;&#x9;&#x9;&#x9;<text transform="matrix(1 -2.094394e-03 2.094394e-03 1 83.5091 118.1409)" class="st1 st2 st3">10</text>
&#x9;&#x9;&#x9;&#x9;<text transform="matrix(1 -2.094394e-03 2.094394e-03 1 86.0406 103.0133)" class="st1 st2 st3">11</text>
&#x9;&#x9;&#x9;&#x9;<text transform="matrix(1 -2.094394e-03 2.094394e-03 1 95.8331 90.0498)" class="st1 st2 st3">12</text>
&#x9;&#x9;&#x9;&#x9;<text transform="matrix(1 -2.094394e-03 2.094394e-03 1 113.3798 82.259)" class="st1 st2 st3">13</text>
&#x9;&#x9;&#x9;&#x9;<text transform="matrix(1 -2.094394e-03 2.094394e-03 1 129.8937 80.5148)" class="st1 st2 st3">14</text>
&#x9;&#x9;&#x9;&#x9;<text transform="matrix(1 -2.094394e-03 2.094394e-03 1 146.2649 80.4024)" class="st1 st2 st3">15</text>
&#x9;&#x9;&#x9;&#x9;<text transform="matrix(1 -2.094394e-03 2.094394e-03 1 162.4229 80.1584)" class="st1 st2 st3">16</text>
&#x9;&#x9;&#x9;&#x9;<text transform="matrix(1 -2.094394e-03 2.094394e-03 1 180.9905 80.4025)" class="st1 st2 st3">17</text>
&#x9;&#x9;&#x9;&#x9;<text transform="matrix(1 -2.094394e-03 2.094394e-03 1 196.688 80.7006)" class="st1 st2 st3">18</text>
&#x9;&#x9;&#x9;&#x9;<text transform="matrix(1 -2.094394e-03 2.094394e-03 1 213.4029 80.7003)" class="st1 st2 st3">19</text>
&#x9;&#x9;&#x9;&#x9;<text transform="matrix(1 -2.094394e-03 2.094394e-03 1 230.7985 82.2612)" class="st1 st2 st3">20</text>
&#x9;&#x9;&#x9;&#x9;<text transform="matrix(1 -2.094394e-03 2.094394e-03 1 246.6739 89.9494)" class="st1 st2 st3">21</text>
&#x9;&#x9;&#x9;&#x9;<text transform="matrix(1 -2.094394e-03 2.094394e-03 1 258.3483 103.1566)" class="st1 st2 st3">22</text>
&#x9;&#x9;&#x9;&#x9;<text transform="matrix(1 -2.094394e-03 2.094394e-03 1 260.3502 118.7847)" class="st1 st2 st3">23</text>
&#x9;&#x9;&#x9;&#x9;<text transform="matrix(1 -2.094394e-03 2.094394e-03 1 260.5756 135.1283)" class="st1 st2 st3">24</text>
&#x9;&#x9;&#x9;&#x9;<text transform="matrix(1 -2.094394e-03 2.094394e-03 1 260.3433 154.1927)" class="st1 st2 st3">25</text>
&#x9;&#x9;&#x9;&#x9;<text transform="matrix(1 -2.094394e-03 2.094394e-03 1 260.1938 171.096)" class="st1 st2 st3">26</text>
&#x9;&#x9;&#x9;&#x9;<text transform="matrix(1 -2.094394e-03 2.094394e-03 1 255.7403 185.5089)" class="st1 st2 st3">27</text>
&#x9;&#x9;&#x9;&#x9;<text transform="matrix(1 -2.094394e-03 2.094394e-03 1 246.6104 199.4302)" class="st1 st2 st3">28</text>
&#x9;&#x9;&#x9;&#x9;<text transform="matrix(1 -2.094394e-03 2.094394e-03 1 229.9363 207.149)" class="st1 st2 st3">29</text>
&#x9;&#x9;&#x9;&#x9;<text transform="matrix(1 -2.094394e-03 2.094394e-03 1 214.006 207.9634)" class="st1 st2 st3">30</text>
&#x9;&#x9;&#x9;&#x9;<text transform="matrix(1 -2.094394e-03 2.094394e-03 1 198.3748 207.9633)" class="st1 st2 st3">31</text>
&#x9;&#x9;&#x9;&#x9;<text transform="matrix(1 -2.094394e-03 2.094394e-03 1 180.3906 207.9647)" class="st1 st2 st3">32</text>
&#x9;&#x9;&#x9;</g>
&#x9;&#x9;</g>
&#x9;&#x9;<g id="ClubLevel">
&#x9;&#x9;&#x9;<path id="id_b41" class="st0" d="M166,218.1h-9.3l-0.6,12.7h10V218.1z"></path>
&#x9;&#x9;&#x9;<path id="id_b42" class="st0" d="M136.8,230.8H156l0.6-12.7h-18.5L136.8,230.8z"></path>
&#x9;&#x9;&#x9;<path id="id_b43" class="st0" d="M116.2,230.6c1.6,0.1,3.2,0.2,4.9,0.2h15.7l1.4-12.7H123c-1.3,0-2.7,0-4-0.2L116.2,230.6z"></path>
&#x9;&#x9;&#x9;<path id="id_b44" class="st0" d="M97.9,226.3c5.8,2.3,12,3.8,18.3,4.3l2.8-12.7c-5.3-0.4-10.5-1.7-15.4-3.9L97.9,226.3z"></path>
&#x9;&#x9;&#x9;<path id="id_b45" class="st0" d="M86.4,220.2c3.6,2.4,7.4,4.4,11.5,6.1l5.7-12.3c-3-1.3-5.9-3-8.7-4.9L86.4,220.2z"></path>
&#x9;&#x9;&#x9;<path id="id_b46" class="st0" d="M76.4,211.9c3,3.1,6.4,5.9,10,8.3l8.5-11.2c-2.9-2.1-5.6-4.5-8-7.1L76.4,211.9z"></path>
&#x9;&#x9;&#x9;<path id="id_b47" class="st0" d="M68.6,202.2c2.3,3.5,4.9,6.8,7.8,9.7L87,202c-2-2.3-3.9-4.7-5.5-7.3L68.6,202.2z"></path>
&#x9;&#x9;&#x9;<path id="id_b48" class="st0" d="M62.7,190.5c1.5,4.1,3.5,8,5.9,11.6l12.9-7.5c-1.8-2.9-3.3-6.1-4.4-9.3L62.7,190.5z"></path>
&#x9;&#x9;&#x9;<path id="id_b49" class="st0" d="M59.3,177.3c0.6,4.5,1.8,8.9,3.4,13.2l14.4-5.2c-1.2-3.5-2-7.1-2.4-10.8L59.3,177.3z"></path>
&#x9;&#x9;&#x9;<path id="id_b50" class="st0" d="M58.7,161.8v6.9c0,2.9,0.2,5.7,0.6,8.5l15.4-2.8c-0.2-1.6-0.2-3.2-0.2-4.7v-8.7L58.7,161.8z"></path>
&#x9;&#x9;&#x9;<path id="id_b51" class="st0" d="M74.5,161.1V142H58.7v19.9L74.5,161.1z"></path>
&#x9;&#x9;&#x9;<path id="id_b52" class="st0" d="M74.5,123v19H58.7v-19.8L74.5,123z"></path>
&#x9;&#x9;&#x9;<path id="id_b53" class="st0" d="M58.7,122.2v-6.9c0-2.9,0.2-5.7,0.6-8.5l15.4,2.8c-0.2,1.6-0.2,3.2-0.2,4.7v8.7L58.7,122.2z"></path>
&#x9;&#x9;&#x9;<path id="id_b54" class="st0" d="M59.3,106.7c0.6-4.5,1.8-8.9,3.4-13.2l14.4,5.2c-1.2,3.5-2,7.1-2.4,10.8L59.3,106.7z"></path>
&#x9;&#x9;&#x9;<path id="id_b55" class="st0" d="M62.7,93.5c1.5-4.1,3.5-8,5.9-11.6l12.9,7.5c-1.8,2.9-3.3,6.1-4.4,9.3L62.7,93.5z"></path>
&#x9;&#x9;&#x9;<path id="id_b56" class="st0" d="M68.6,81.9c2.3-3.5,4.9-6.8,7.8-9.7L87,82.1c-2,2.3-3.9,4.7-5.5,7.3L68.6,81.9z"></path>
&#x9;&#x9;&#x9;<path id="id_b57" class="st0" d="M76.4,72.1c3-3.1,6.4-5.9,10-8.3L95,74.9c-2.9,2.1-5.6,4.5-8,7.1L76.4,72.1z"></path>
&#x9;&#x9;&#x9;<path id="id_b58" class="st0" d="M86.4,63.8c3.6-2.4,7.4-4.4,11.5-6.1l5.7,12.3c-3,1.3-5.9,3-8.7,4.9L86.4,63.8z"></path>
&#x9;&#x9;&#x9;<path id="id_b59" class="st0" d="M97.9,57.7c5.8-2.3,12-3.8,18.3-4.3l2.8,12.7c-5.3,0.4-10.5,1.7-15.4,3.9L97.9,57.7z"></path>
&#x9;&#x9;&#x9;<path id="id_b60" class="st0" d="M116.2,53.4c1.6-0.1,3.2-0.2,4.9-0.2h15.7l1.4,12.7H123c-1.3,0-2.7,0-4,0.2L116.2,53.4z"></path>
&#x9;&#x9;&#x9;<path id="id_b61" class="st0" d="M136.8,53.2h19.4l0.3,12.7h-18.3L136.8,53.2z"></path>
&#x9;&#x9;&#x9;<path id="id_b62" class="st0" d="M156.1,53.2h18.6V66h-18.3L156.1,53.2z"></path>
&#x9;&#x9;&#x9;<path id="id_b63" class="st0" d="M193.3,53.2h-18.6V66H193L193.3,53.2z"></path>
&#x9;&#x9;&#x9;<path id="id_b64" class="st0" d="M212.7,53.2h-19.4L193,66h18.3L212.7,53.2z"></path>
&#x9;&#x9;&#x9;<path id="id_b65" class="st0" d="M233.3,53.4c-1.6-0.1-3.2-0.2-4.9-0.2h-15.7l-1.4,12.7h15.1c1.3,0,2.7,0,4,0.2L233.3,53.4z"></path>
&#x9;&#x9;&#x9;<path id="id_b66" class="st0" d="M251.6,57.7c-5.8-2.3-12-3.8-18.3-4.3l-2.8,12.7c5.3,0.4,10.5,1.7,15.4,3.9L251.6,57.7z"></path>
&#x9;&#x9;&#x9;<path id="id_b67" class="st0" d="M263,63.8c-3.6-2.4-7.4-4.4-11.5-6.1L245.9,70c3,1.3,5.9,3,8.7,4.9L263,63.8z"></path>
&#x9;&#x9;&#x9;<path id="id_b68" class="st0" d="M273.1,72.1c-3-3.1-6.4-5.9-10-8.3l-8.5,11.2c2.9,2.1,5.6,4.5,8,7.1L273.1,72.1z"></path>
&#x9;&#x9;&#x9;<path id="id_b69" class="st0" d="M280.9,81.9c-2.3-3.5-4.9-6.8-7.8-9.7L262.5,82c2,2.3,3.9,4.7,5.5,7.3L280.9,81.9z"></path>
&#x9;&#x9;&#x9;<path id="id_b70" class="st0" d="M286.8,93.5c-1.5-4.1-3.5-8-5.9-11.6L268,89.3c1.8,2.9,3.3,6.1,4.4,9.3L286.8,93.5z"></path>
&#x9;&#x9;&#x9;<path id="id_b71" class="st0" d="M290.1,106.7c-0.6-4.5-1.8-8.9-3.4-13.2l-14.4,5.2c1.2,3.5,2,7.1,2.4,10.8L290.1,106.7z"></path>
&#x9;&#x9;&#x9;<path id="id_b72" class="st0" d="M290.7,122.2v-6.9c0-2.9-0.2-5.7-0.6-8.5l-15.4,2.8c0.2,1.6,0.2,3.2,0.2,4.7v8.7L290.7,122.2z"></path>
&#x9;&#x9;&#x9;<path id="id_b73" class="st0" d="M274.9,123v19h15.8v-19.8L274.9,123z"></path>
&#x9;&#x9;&#x9;<path id="id_b74" class="st0" d="M274.9,161.1V142h15.8v19.9L274.9,161.1z"></path>
&#x9;&#x9;&#x9;<path id="id_b75" class="st0" d="M290.7,161.8v6.9c0,2.9-0.2,5.7-0.6,8.5l-15.4-2.8c0.2-1.6,0.2-3.2,0.2-4.7v-8.7L290.7,161.8z"></path>
&#x9;&#x9;&#x9;<path id="id_b76" class="st0" d="M290.1,177.3c-0.6,4.5-1.8,8.9-3.4,13.2l-14.4-5.2c1.2-3.5,2-7.1,2.4-10.8L290.1,177.3z"></path>
&#x9;&#x9;&#x9;<path id="id_b77" class="st0" d="M286.8,190.5c-1.5,4.1-3.5,8-5.9,11.6l-12.9-7.5c1.8-2.9,3.3-6.1,4.4-9.3L286.8,190.5z"></path>
&#x9;&#x9;&#x9;<path id="id_b78" class="st0" d="M280.9,202.2c-2.3,3.5-4.9,6.8-7.8,9.7l-10.6-9.9c2-2.3,3.9-4.7,5.5-7.3L280.9,202.2z"></path>
&#x9;&#x9;&#x9;<path id="id_b79" class="st0" d="M273.1,211.9c-3,3.1-6.4,5.9-10,8.3l-8.5-11.2c2.9-2.1,5.6-4.5,8-7.1L273.1,211.9z"></path>
&#x9;&#x9;&#x9;<path id="id_b80" class="st0" d="M263,220.2c-3.6,2.4-7.4,4.4-11.5,6.1l-5.7-12.3c3-1.3,5.9-3,8.7-4.9L263,220.2z"></path>
&#x9;&#x9;&#x9;<path id="id_b81" class="st0" d="M251.6,226.3c-5.8,2.3-12,3.8-18.3,4.3l-2.8-12.7c5.3-0.4,10.5-1.7,15.4-3.9L251.6,226.3z"></path>
&#x9;&#x9;&#x9;<path id="id_b82" class="st0" d="M233.3,230.6c-1.6,0.1-3.2,0.2-4.9,0.2h-15.7l-1.4-12.7h15.1c1.3,0,2.7,0,4-0.2L233.3,230.6z"></path>
&#x9;&#x9;&#x9;<path id="id_b83" class="st0" d="M212.7,230.8h-19.2l-0.7-12.7h18.5L212.7,230.8z"></path>
&#x9;&#x9;&#x9;<path id="id_b84" class="st0" d="M183.5,218.1h9.3l0.7,12.7h-9.8L183.5,218.1z"></path>
&#x9;&#x9;&#x9;<path id="_x30_DirectorsBox" class="st0" d="M166,218.1v12.7h17.7l-0.2-12.7H166z"></path>
&#x9;&#x9;&#x9;<g id="DirectorsBox_Numbers">
&#x9;&#x9;&#x9;&#x9;<text transform="matrix(1 -2.094394e-03 2.094394e-03 1 157.2613 226.0341)" class="st1 st2 st4">B41</text>
&#x9;&#x9;&#x9;&#x9;<text transform="matrix(1 -2.094394e-03 2.094394e-03 1 141.303 226.9667)" class="st1 st2 st5">B42</text>
&#x9;&#x9;&#x9;&#x9;<text transform="matrix(1 -2.094394e-03 2.094394e-03 1 122.3553 226.9666)" class="st1 st2 st5">B43</text>
&#x9;&#x9;&#x9;&#x9;<text transform="matrix(1 -2.094394e-03 2.094394e-03 1 102.5806 225.2132)" class="st1 st2 st5">B44</text>
&#x9;&#x9;&#x9;&#x9;<text transform="matrix(1 -2.094394e-03 2.094394e-03 1 89.8049 220.3417)" class="st1 st2 st5">B45</text>
&#x9;&#x9;&#x9;&#x9;<text transform="matrix(1 -2.094394e-03 2.094394e-03 1 80.303 213.2389)" class="st1 st2 st5">B46</text>
&#x9;&#x9;&#x9;&#x9;<text transform="matrix(1 -2.094394e-03 2.094394e-03 1 73.0067 205.3076)" class="st1 st2 st5">B47</text>
&#x9;&#x9;&#x9;&#x9;<text transform="matrix(1 -2.094394e-03 2.094394e-03 1 66.5311 195.3041)" class="st1 st2 st5">B48</text>
&#x9;&#x9;&#x9;&#x9;<text transform="matrix(1 -2.094394e-03 2.094394e-03 1 62.8429 184.3859)" class="st1 st2 st5">B49</text>
&#x9;&#x9;&#x9;&#x9;<text transform="matrix(1 -2.094394e-03 2.094394e-03 1 61.3433 171.0687)" class="st1 st2 st5">B50</text>
&#x9;&#x9;&#x9;&#x9;<text transform="matrix(1 -2.094394e-03 2.094394e-03 1 62.0168 153.5681)" class="st1 st2 st5">B51</text>
&#x9;&#x9;&#x9;&#x9;<text transform="matrix(1 -2.094394e-03 2.094394e-03 1 61.4789 134.7811)" class="st1 st2 st5">B52</text>
&#x9;&#x9;&#x9;&#x9;<text transform="matrix(1 -2.094394e-03 2.094394e-03 1 61.4842 117.7511)" class="st1 st2 st5">B53</text>
&#x9;&#x9;&#x9;&#x9;<text transform="matrix(1 -2.094394e-03 2.094394e-03 1 62.9405 103.9164)" class="st1 st2 st5">B54</text>
&#x9;&#x9;&#x9;&#x9;<text transform="matrix(1 -2.094394e-03 2.094394e-03 1 67.2836 92.9483)" class="st1 st2 st5">B55</text>
&#x9;&#x9;&#x9;&#x9;<text transform="matrix(1 -2.094394e-03 2.094394e-03 1 72.944 83.1552)" class="st1 st2 st5">B56</text>
&#x9;&#x9;&#x9;&#x9;<text transform="matrix(1 -2.094394e-03 2.094394e-03 1 80.8415 75.0249)" class="st1 st2 st5">B57</text>
&#x9;&#x9;&#x9;&#x9;<text transform="matrix(1 -2.094394e-03 2.094394e-03 1 90.2317 68.4062)" class="st1 st2 st5">B58</text>
&#x9;&#x9;&#x9;&#x9;<text transform="matrix(1 -2.094394e-03 2.094394e-03 1 103.8321 63.3508)" class="st1 st2 st5">B59</text>
&#x9;&#x9;&#x9;&#x9;<text transform="matrix(1 -2.094394e-03 2.094394e-03 1 122.1076 61.4093)" class="st1 st2 st5">B60</text>
&#x9;&#x9;&#x9;&#x9;<text transform="matrix(1 -2.094394e-03 2.094394e-03 1 142.2132 61.6015)" class="st1 st2 st5">B61</text>
&#x9;&#x9;&#x9;&#x9;<text transform="matrix(1 -2.094394e-03 2.094394e-03 1 160.4281 61.6016)" class="st1 st2 st5">B62</text>
&#x9;&#x9;&#x9;&#x9;<text transform="matrix(1 -2.094394e-03 2.094394e-03 1 178.6794 62.1119)" class="st1 st2 st5">B63</text>
&#x9;&#x9;&#x9;&#x9;<text transform="matrix(1 -2.094394e-03 2.094394e-03 1 197.5124 61.8761)" class="st1 st2 st5">B64</text>
&#x9;&#x9;&#x9;&#x9;<text transform="matrix(1 -2.094394e-03 2.094394e-03 1 216.7602 61.8745)" class="st1 st2 st5">B65</text>
&#x9;&#x9;&#x9;&#x9;<text transform="matrix(1 -2.094394e-03 2.094394e-03 1 235.3431 63.2296)" class="st1 st2 st5">B66</text>
&#x9;&#x9;&#x9;&#x9;<text transform="matrix(1 -2.094394e-03 2.094394e-03 1 249.3523 68.4728)" class="st1 st2 st5">B67</text>
&#x9;&#x9;&#x9;&#x9;<text transform="matrix(1 -2.094394e-03 2.094394e-03 1 258.3399 75.3683)" class="st1 st2 st5">B68</text>
&#x9;&#x9;&#x9;&#x9;<text transform="matrix(1 -2.094394e-03 2.094394e-03 1 266.4651 83.5991)" class="st1 st2 st5">B69</text>
&#x9;&#x9;&#x9;&#x9;<text transform="matrix(1 -2.094394e-03 2.094394e-03 1 272.4641 93.2892)" class="st1 st2 st5">B70</text>
&#x9;&#x9;&#x9;&#x9;<text transform="matrix(1 -2.094394e-03 2.094394e-03 1 276.6866 104.4197)" class="st1 st2 st5">B71</text>
&#x9;&#x9;&#x9;&#x9;<text transform="matrix(1 -2.094394e-03 2.094394e-03 1 277.6479 117.7973)" class="st1 st2 st5">B72</text>
&#x9;&#x9;&#x9;&#x9;<text transform="matrix(1 -2.094394e-03 2.094394e-03 1 277.6612 134.5822)" class="st1 st2 st5">B73</text>
&#x9;&#x9;&#x9;&#x9;<text transform="matrix(1 -2.094394e-03 2.094394e-03 1 277.5568 154.0594)" class="st1 st2 st5">B74</text>
&#x9;&#x9;&#x9;&#x9;<text transform="matrix(1 -2.094394e-03 2.094394e-03 1 277.8104 171.1272)" class="st1 st2 st5">B75</text>
&#x9;&#x9;&#x9;&#x9;<text transform="matrix(1 -2.094394e-03 2.094394e-03 1 276.5986 184.2984)" class="st1 st2 st5">B76</text>
&#x9;&#x9;&#x9;&#x9;<text transform="matrix(1 -2.094394e-03 2.094394e-03 1 272.2476 195.3754)" class="st1 st2 st5">B77</text>
&#x9;&#x9;&#x9;&#x9;<text transform="matrix(1 -2.094394e-03 2.094394e-03 1 266.9841 204.9486)" class="st1 st2 st5">B78</text>
&#x9;&#x9;&#x9;&#x9;<text transform="matrix(1 -2.094394e-03 2.094394e-03 1 258.4638 213.4135)" class="st1 st2 st5">B79</text>
&#x9;&#x9;&#x9;&#x9;<text transform="matrix(1 -2.094394e-03 2.094394e-03 1 248.4105 219.988)" class="st1 st2 st5">B80</text>
&#x9;&#x9;&#x9;&#x9;<text transform="matrix(1 -2.094394e-03 2.094394e-03 1 235.723 225.1884)" class="st1 st2 st5">B81</text>
&#x9;&#x9;&#x9;&#x9;<text transform="matrix(1 -2.094394e-03 2.094394e-03 1 217.924 226.9666)" class="st1 st2 st5">B82</text>
&#x9;&#x9;&#x9;&#x9;<text transform="matrix(1 -2.094394e-03 2.094394e-03 1 197.2332 226.9666)" class="st1 st2 st5">B83</text>
&#x9;&#x9;&#x9;&#x9;<text transform="matrix(1 -2.094394e-03 2.094394e-03 1 184.1118 226.0344)" class="st1 st2 st4">B84</text>
&#x9;&#x9;&#x9;&#x9;<text transform="matrix(1 0 0 1 167.501 223.477)" class="st1 st2 st6">Director’s </text>
&#x9;&#x9;&#x9;&#x9;<text transform="matrix(1 0 0 1 171.933 227.477)" class="st1 st2 st6">Box </text>
&#x9;&#x9;&#x9;</g>
&#x9;&#x9;</g>
&#x9;&#x9;<g id="DiamondClub">
&#x9;&#x9;&#x9;<path id="id_dc1" class="st0" d="M151.3,236.6h4.4l0.2-5.9h-4.4L151.3,236.6z"></path>
&#x9;&#x9;&#x9;<path id="id_dc2" class="st0" d="M146.3,236.6h5l0.3-5.9h-5L146.3,236.6z"></path>
&#x9;&#x9;&#x9;<path id="id_dc3" class="st0" d="M141.4,236.6h4.9l0.3-5.9h-4.9L141.4,236.6z"></path>
&#x9;&#x9;&#x9;<path id="id_dc4" class="st0" d="M141.7,230.8h-4.9l-0.6,5.9h5.2L141.7,230.8z"></path>
&#x9;&#x9;&#x9;<path id="id_dc5" class="st0" d="M131.2,236.6h5l0.6-5.9h-4.7L131.2,236.6z"></path>
&#x9;&#x9;&#x9;<path id="id_dc6" class="st0" d="M125.7,236.6h5.5l0.9-5.9h-5.3L125.7,236.6z"></path>
&#x9;&#x9;&#x9;<path id="id_dc7" class="st0" d="M120,236.6h5.7l1.2-5.9h-5.6L120,236.6z"></path>
&#x9;&#x9;&#x9;<path id="id_dc8" class="st0" d="M114.9,236.4c1.4,0.1,3.6,0.2,5,0.2l1.3-5.9c-1.4,0-3.6-0.1-4.9-0.2L114.9,236.4z"></path>
&#x9;&#x9;&#x9;<path id="id_dc9" class="st0" d="M110.7,236c1.4,0.2,2.8,0.4,4.3,0.4l1.4-5.9c-1.4-0.1-2.8-0.3-4.2-0.5L110.7,236z"></path>
&#x9;&#x9;&#x9;<path id="id_dc10" class="st0" d="M105.5,235.1c1.7,0.4,3.4,0.7,5.1,0.9l1.6-5.9c-1.6-0.2-3.1-0.5-4.6-0.9L105.5,235.1z"></path>
&#x9;&#x9;&#x9;<path id="id_dc11" class="st0" d="M100.3,233.8c1.7,0.5,3.4,0.9,5.2,1.3l2.1-5.8c-1.6-0.4-3.2-0.8-4.8-1.3L100.3,233.8z"></path>
&#x9;&#x9;&#x9;<path id="id_dc12" class="st0" d="M95.2,232c1.7,0.6,3.4,1.2,5.1,1.7l2.5-5.8c-1.7-0.5-3.3-1.1-4.9-1.7L95.2,232z"></path>
&#x9;&#x9;&#x9;<path id="id_dc13" class="st0" d="M91,230.2c1.4,0.6,2.8,1.3,4.2,1.8l2.7-5.7c-1.3-0.6-2.7-1.1-3.9-1.7L91,230.2z"></path>
&#x9;&#x9;&#x9;<path id="id_dc14" class="st0" d="M86.3,227.8c1.5,0.8,3,1.7,4.6,2.4l3-5.7c-1.3-0.7-2.7-1.3-4-2.1L86.3,227.8z"></path>
&#x9;&#x9;&#x9;<path id="id_dc15" class="st0" d="M82.6,225.5c1.2,0.8,2.5,1.5,3.8,2.3l3.7-5.4c-1.2-0.7-2.3-1.4-3.4-2.1L82.6,225.5z"></path>
&#x9;&#x9;&#x9;<path id="id_dc16" class="st0" d="M78.1,222.4c1.4,1.1,2.9,2.1,4.4,3.1l4-5.3c-1.4-0.9-2.7-1.9-4-2.9L78.1,222.4z"></path>
&#x9;&#x9;&#x9;<path id="id_dc17" class="st0" d="M74.9,219.8c1.1,0.9,2.1,1.8,3.2,2.7l4.4-5.1c-1-0.8-2.1-1.7-3-2.6L74.9,219.8z"></path>
&#x9;&#x9;&#x9;<path id="id_dc18" class="st0" d="M71.6,216.7c1.1,1.1,2.2,2.1,3.3,3.1l4.6-5c-1-0.9-2.1-1.9-3-2.9L71.6,216.7z"></path>
&#x9;&#x9;&#x9;<path id="id_dc19" class="st0" d="M68.3,213.2c1,1.2,2.1,2.3,3.2,3.4l4.9-4.8c-1-1-1.9-2.1-2.8-3.1L68.3,213.2z"></path>
&#x9;&#x9;&#x9;<path id="id_dc20" class="st0" d="M65.4,209.6c0.9,1.3,1.9,2.5,3,3.6l5.3-4.4c-0.9-1-1.7-2.1-2.5-3.2L65.4,209.6z"></path>
&#x9;&#x9;&#x9;<path id="id_dc21" class="st0" d="M62.6,205.6c0.9,1.3,1.8,2.6,2.8,4l5.8-4c-0.9-1.1-1.7-2.3-2.5-3.5L62.6,205.6z"></path>
&#x9;&#x9;&#x9;<path id="id_dc22" class="st0" d="M60,201.5c0.8,1.4,1.7,2.8,2.5,4.2l6.1-3.5c-0.8-1.2-1.5-2.5-2.3-3.7L60,201.5z"></path>
&#x9;&#x9;&#x9;<path id="id_dc23" class="st0" d="M57.8,197.1c0.7,1.5,1.5,2.9,2.3,4.4l6.4-3.1c-0.8-1.5-1.5-2.9-2.3-4.5L57.8,197.1z"></path>
&#x9;&#x9;&#x9;<path id="id_dc24" class="st0" d="M55.9,192.9c0.6,1.4,1.2,2.8,1.8,4.2l6.4-3.2c-0.5-1.1-1-2.3-1.4-3.4L55.9,192.9z"></path>
&#x9;&#x9;&#x9;<path id="id_dc25" class="st0" d="M54.3,188c0.5,1.6,1.1,3.2,1.7,4.8l6.8-2.4c-0.6-1.5-1.1-3.1-1.6-4.7L54.3,188z"></path>
&#x9;&#x9;&#x9;<path id="id_dc26" class="st0" d="M52.9,183c0.4,1.7,0.8,3.4,1.3,5l6.9-2.3c-0.4-1.4-0.8-2.8-1.1-4.3L52.9,183z"></path>
&#x9;&#x9;&#x9;<path id="id_dc27" class="st0" d="M52.1,178.7c0.2,1.5,0.5,2.9,0.8,4.4l7.2-1.5c-0.3-1.3-0.6-2.7-0.8-4.2L52.1,178.7z"></path>
&#x9;&#x9;&#x9;<path id="id_dc28" class="st0" d="M51.5,173.8c0.1,1.7,0.3,3.3,0.6,4.9l7.2-1.3c-0.2-1.3-0.4-2.7-0.4-4L51.5,173.8z"></path>
&#x9;&#x9;&#x9;<path id="id_dc29" class="st0" d="M51.3,169.7c0,1.4,0.1,2.7,0.2,4.1l7.4-0.5c-0.1-1.3-0.2-2.5-0.2-3.8L51.3,169.7z"></path>
&#x9;&#x9;&#x9;<path id="id_dc30" class="st0" d="M51.3,166.1v3.6l7.4-0.2v-3.4L51.3,166.1z"></path>
&#x9;&#x9;&#x9;<path id="id_dc31" class="st0" d="M51.3,162.3v3.8l7.4,0v-4.2L51.3,162.3z"></path>
&#x9;&#x9;&#x9;<path id="id_dc32" class="st0" d="M51.3,156.8v5.5l7.4-0.4v-5.2L51.3,156.8z"></path>
&#x9;&#x9;&#x9;<path id="id_dc33" class="st0" d="M51.3,152.1v4.7l7.4-0.1v-4.6H51.3z"></path>
&#x9;&#x9;&#x9;<path id="id_dc34" class="st0" d="M58.7,147.3h-7.4v4.8h7.4V147.3z"></path>
&#x9;&#x9;&#x9;<path id="id_dc35" class="st0" d="M58.7,142h-7.4v5.3h7.4V142z"></path>
&#x9;&#x9;&#x9;<path id="id_dc36" class="st0" d="M58.7,136.7h-7.4v5.3h7.4V136.7z"></path>
&#x9;&#x9;&#x9;<path id="id_dc37" class="st0" d="M58.7,131.9h-7.4v4.8h7.4V131.9z"></path>
&#x9;&#x9;&#x9;<path id="id_dc38" class="st0" d="M51.3,131.9v-4.6l7.4,0v4.6H51.3z"></path>
&#x9;&#x9;&#x9;<path id="id_dc39" class="st0" d="M51.3,127.2v-5.5l7.4,0.4v5.2L51.3,127.2z"></path>
&#x9;&#x9;&#x9;<path id="id_dc40" class="st0" d="M51.3,121.7v-3.8l7.4,0v4.2L51.3,121.7z"></path>
&#x9;&#x9;&#x9;<path id="id_dc41" class="st0" d="M51.3,117.9v-3.6l7.4,0.2v3.4L51.3,117.9z"></path>
&#x9;&#x9;&#x9;<path id="id_dc42" class="st0" d="M51.3,114.3c0-1.4,0.1-2.7,0.2-4.1l7.4,0.5c-0.1,1.3-0.2,2.5-0.2,3.8L51.3,114.3z"></path>
&#x9;&#x9;&#x9;<path id="id_dc43" class="st0" d="M51.5,110.2c0.1-1.7,0.3-3.3,0.6-4.9l7.2,1.3c-0.2,1.3-0.4,2.7-0.4,4L51.5,110.2z"></path>
&#x9;&#x9;&#x9;<path id="id_dc44" class="st0" d="M52.1,105.3c0.2-1.5,0.5-2.9,0.8-4.4l7.2,1.5c-0.3,1.3-0.6,2.7-0.8,4.2L52.1,105.3z"></path>
&#x9;&#x9;&#x9;<path id="id_dc45" class="st0" d="M52.9,101c0.4-1.7,0.8-3.4,1.3-5l6.9,2.3c-0.4,1.4-0.8,2.8-1.1,4.3L52.9,101z"></path>
&#x9;&#x9;&#x9;<path id="id_dc46" class="st0" d="M54.3,96c0.5-1.6,1.1-3.2,1.7-4.8l6.8,2.4c-0.6,1.5-1.1,3.1-1.6,4.7L54.3,96z"></path>
&#x9;&#x9;&#x9;<path id="id_dc47" class="st0" d="M55.9,91.1c0.6-1.4,1.2-2.8,1.8-4.2l6.4,3.2c-0.5,1.1-1,2.3-1.4,3.4L55.9,91.1z"></path>
&#x9;&#x9;&#x9;<path id="id_dc48" class="st0" d="M57.8,86.9c0.7-1.5,1.5-2.9,2.3-4.4l6.4,3.1c-0.8,1.5-1.5,2.9-2.3,4.5L57.8,86.9z"></path>
&#x9;&#x9;&#x9;<path id="id_dc49" class="st0" d="M60,82.5c0.8-1.4,1.7-2.8,2.5-4.2l6.1,3.5c-0.8,1.2-1.5,2.5-2.3,3.7L60,82.5z"></path>
&#x9;&#x9;&#x9;<path id="id_dc50" class="st0" d="M62.6,78.4c0.9-1.3,1.8-2.7,2.8-4l5.8,4c-0.9,1.1-1.7,2.3-2.5,3.5L62.6,78.4z"></path>
&#x9;&#x9;&#x9;<path id="id_dc51" class="st0" d="M65.4,74.4c0.9-1.3,1.9-2.5,3-3.6l5.3,4.4c-0.9,1-1.7,2.1-2.5,3.2L65.4,74.4z"></path>
&#x9;&#x9;&#x9;<path id="id_dc52" class="st0" d="M68.3,70.8c1-1.2,2.1-2.3,3.2-3.4l4.9,4.8c-1,1-1.9,2.1-2.8,3.1L68.3,70.8z"></path>
&#x9;&#x9;&#x9;<path id="id_dc53" class="st0" d="M71.6,67.3c1.1-1.1,2.2-2.1,3.3-3.1l4.6,5c-1,0.9-2.1,1.9-3,2.9L71.6,67.3z"></path>
&#x9;&#x9;&#x9;<path id="id_dc54" class="st0" d="M74.9,64.2c1.1-0.9,2.1-1.8,3.2-2.7l4.4,5.1c-1,0.8-2.1,1.7-3,2.6L74.9,64.2z"></path>
&#x9;&#x9;&#x9;<path id="id_dc55" class="st0" d="M78.1,61.6c1.4-1.1,2.9-2.1,4.4-3.1l4,5.3c-1.4,0.9-2.7,1.9-4,2.9L78.1,61.6z"></path>
&#x9;&#x9;&#x9;<path id="id_dc56" class="st0" d="M82.6,58.4c1.2-0.8,2.5-1.5,3.8-2.3l3.7,5.4c-1.2,0.7-2.3,1.4-3.4,2.1L82.6,58.4z"></path>
&#x9;&#x9;&#x9;<path id="id_dc57" class="st0" d="M86.3,56.2c1.5-0.8,3-1.7,4.6-2.4l3,5.7c-1.3,0.7-2.7,1.3-4,2.1L86.3,56.2z"></path>
&#x9;&#x9;&#x9;<path id="id_dc58" class="st0" d="M91,53.8c1.4-0.6,2.8-1.3,4.2-1.8l2.7,5.7c-1.3,0.6-2.7,1.1-3.9,1.7L91,53.8z"></path>
&#x9;&#x9;&#x9;<path id="id_dc59" class="st0" d="M95.2,52c1.7-0.6,3.4-1.2,5.1-1.7l2.5,5.8c-1.7,0.5-3.3,1.1-4.9,1.7L95.2,52z"></path>
&#x9;&#x9;&#x9;<path id="id_dc60" class="st0" d="M100.3,50.3c1.7-0.5,3.4-0.9,5.2-1.3l2.1,5.8c-1.6,0.4-3.2,0.8-4.8,1.3L100.3,50.3z"></path>
&#x9;&#x9;&#x9;<path id="id_dc61" class="st0" d="M105.5,48.9c1.7-0.4,3.4-0.7,5.1-0.9l1.6,5.9c-1.6,0.2-3.1,0.5-4.6,0.9L105.5,48.9z"></path>
&#x9;&#x9;&#x9;<path id="id_dc62" class="st0" d="M110.7,48c1.4-0.2,2.8-0.4,4.3-0.4l1.4,5.9c-1.4,0.1-2.8,0.3-4.2,0.5L110.7,48z"></path>
&#x9;&#x9;&#x9;<path id="id_dc63" class="st0" d="M114.9,47.6c1.4-0.1,2.8-0.2,4.2-0.2l1.3,5.9c-1.4,0-2.7,0.1-4.1,0.2L114.9,47.6z"></path>
&#x9;&#x9;&#x9;<path id="id_dc64" class="st0" d="M119.2,47.4h4.4l1.3,5.9h-4.3L119.2,47.4z"></path>
&#x9;&#x9;&#x9;<path id="id_dc65" class="st0" d="M123.5,47.4h4.1l1.1,5.8h-4L123.5,47.4z"></path>
&#x9;&#x9;&#x9;<path id="id_dc66" class="st0" d="M127.6,47.4h4.3l0.9,5.8h-4.1L127.6,47.4z"></path>
&#x9;&#x9;&#x9;<path id="id_dc67" class="st0" d="M131.9,47.4h4.4l0.6,5.8h-4L131.9,47.4z"></path>
&#x9;&#x9;&#x9;<path id="id_dc68" class="st0" d="M141.7,53.2h-4.9l-0.6-5.8h5.2L141.7,53.2z"></path>
&#x9;&#x9;&#x9;<path id="id_dc69" class="st0" d="M141.4,47.4h4.9l0.3,5.8h-4.9L141.4,47.4z"></path>
&#x9;&#x9;&#x9;<path id="id_dc70" class="st0" d="M146.3,47.4h5l0.3,5.8h-5L146.3,47.4z"></path>
&#x9;&#x9;&#x9;<path id="id_dc71" class="st0" d="M151.3,47.4h4.4l0.2,5.8h-4.4L151.3,47.4z"></path>
&#x9;&#x9;&#x9;<path id="id_dc72" class="st0" d="M161.1,53.2H156l-0.2-5.8h5.3L161.1,53.2z"></path>
&#x9;&#x9;&#x9;<path id="id_dc73" class="st0" d="M165.7,53.2h-4.6l-0.1-5.8h4.7V53.2z"></path>
&#x9;&#x9;&#x9;<path id="id_dc74" class="st0" d="M165.7,47.4h4.7l0,5.8h-4.7V47.4z"></path>
&#x9;&#x9;&#x9;<path id="id_dc75" class="st0" d="M170.4,47.4h4.3v5.8h-4.4L170.4,47.4z"></path>
&#x9;&#x9;&#x9;<path id="id_dc76" class="st0" d="M179,47.4h-4.3v5.8h4.4L179,47.4z"></path>
&#x9;&#x9;&#x9;<path id="id_dc77" class="st0" d="M183.7,47.4H179l0.1,5.8h4.6V47.4z"></path>
&#x9;&#x9;&#x9;<path id="id_dc78" class="st0" d="M183.7,53.2h4.6l0.1-5.8h-4.7V53.2z"></path>
&#x9;&#x9;&#x9;<path id="id_dc79" class="st0" d="M188.3,53.2h5.2l0.2-5.8h-5.3L188.3,53.2z"></path>
&#x9;&#x9;&#x9;<path id="id_dc80" class="st0" d="M198.1,47.4h-4.4l-0.2,5.8h4.4L198.1,47.4z"></path>
&#x9;&#x9;&#x9;<path id="id_dc81" class="st0" d="M203.1,47.4h-5l-0.2,5.8h5L203.1,47.4z"></path>
&#x9;&#x9;&#x9;<path id="id_dc82" class="st0" d="M208,47.4h-4.9l-0.3,5.8h4.9L208,47.4z"></path>
&#x9;&#x9;&#x9;<path id="id_dc83" class="st0" d="M207.8,53.2h4.8l0.6-5.8H208L207.8,53.2z"></path>
&#x9;&#x9;&#x9;<path id="id_dc84" class="st0" d="M217.6,47.4h-4.4l-0.6,5.8h4.1L217.6,47.4z"></path>
&#x9;&#x9;&#x9;<path id="id_dc85" class="st0" d="M221.9,47.4h-4.3l-0.9,5.8h4.1L221.9,47.4z"></path>
&#x9;&#x9;&#x9;<path id="id_dc86" class="st0" d="M226,47.4h-4.1l-1.1,5.8h4L226,47.4z"></path>
&#x9;&#x9;&#x9;<path id="id_dc87" class="st0" d="M230.3,47.4H226l-1.3,5.9h4.3L230.3,47.4z"></path>
&#x9;&#x9;&#x9;<path id="id_dc88" class="st0" d="M234.5,47.6c-1.4-0.1-2.8-0.2-4.2-0.2l-1.3,5.9c1.4,0,2.7,0.1,4.1,0.2L234.5,47.6z"></path>
&#x9;&#x9;&#x9;<path id="id_dc89" class="st0" d="M238.8,48c-1.4-0.2-2.8-0.4-4.3-0.4l-1.4,5.9c1.4,0.1,2.8,0.3,4.2,0.5L238.8,48z"></path>
&#x9;&#x9;&#x9;<path id="id_dc90" class="st0" d="M244,48.9c-1.7-0.4-3.4-0.7-5.1-0.9l-1.6,5.9c1.6,0.2,3.1,0.5,4.6,0.9L244,48.9z"></path>
&#x9;&#x9;&#x9;<path id="id_dc91" class="st0" d="M249.1,50.3c-1.7-0.5-3.4-0.9-5.2-1.3l-2.1,5.8c1.6,0.4,3.2,0.8,4.8,1.3L249.1,50.3z"></path>
&#x9;&#x9;&#x9;<path id="id_dc92" class="st0" d="M254.2,52c-1.7-0.6-3.4-1.2-5.1-1.7l-2.5,5.8c1.6,0.5,3.3,1.1,4.9,1.7L254.2,52z"></path>
&#x9;&#x9;&#x9;<path id="id_dc93" class="st0" d="M258.5,53.8c-1.4-0.6-2.8-1.3-4.2-1.8l-2.7,5.7c1.3,0.6,2.6,1.1,3.9,1.7L258.5,53.8z"></path>
&#x9;&#x9;&#x9;<path id="id_dc94" class="st0" d="M263.1,56.2c-1.5-0.8-3-1.7-4.6-2.4l-3,5.7c1.3,0.7,2.7,1.3,4,2.1L263.1,56.2z"></path>
&#x9;&#x9;&#x9;<path id="id_dc95" class="st0" d="M266.9,58.4c-1.2-0.8-2.5-1.5-3.8-2.3l-3.7,5.4c1.2,0.7,2.3,1.4,3.4,2.1L266.9,58.4z"></path>
&#x9;&#x9;&#x9;<path id="id_dc96" class="st0" d="M271.3,61.6c-1.4-1.1-2.9-2.1-4.4-3.1l-4,5.3c1.4,0.9,2.7,1.9,4,2.9L271.3,61.6z"></path>
&#x9;&#x9;&#x9;<path id="id_dc97" class="st0" d="M274.5,64.2c-1.1-0.9-2.1-1.8-3.2-2.7l-4.4,5.1c1,0.8,2.1,1.7,3,2.6L274.5,64.2z"></path>
&#x9;&#x9;&#x9;<path id="id_dc98" class="st0" d="M277.9,67.3c-1.1-1.1-2.2-2.1-3.3-3.1l-4.6,5c1,0.9,2.1,1.9,3,2.9L277.9,67.3z"></path>
&#x9;&#x9;&#x9;<path id="id_dc99" class="st0" d="M281.1,70.8c-1-1.2-2.1-2.3-3.2-3.4l-4.9,4.8c1,1,1.9,2.1,2.8,3.1L281.1,70.8z"></path>
&#x9;&#x9;&#x9;<path id="id_dc100" class="st0" d="M284.1,74.4c-0.9-1.3-1.9-2.5-3-3.6l-5.3,4.4c0.9,1,1.7,2.1,2.5,3.2L284.1,74.4z"></path>
&#x9;&#x9;&#x9;<path id="id_dc101" class="st0" d="M286.9,78.4c-0.9-1.3-1.8-2.7-2.8-4l-5.8,4c0.9,1.1,1.7,2.3,2.5,3.5L286.9,78.4z"></path>
&#x9;&#x9;&#x9;<path id="id_dc102" class="st0" d="M289.5,82.5c-0.8-1.4-1.7-2.8-2.5-4.2l-6.1,3.5c0.8,1.2,1.5,2.5,2.3,3.7L289.5,82.5z"></path>
&#x9;&#x9;&#x9;<path id="id_dc103" class="st0" d="M291.7,86.9c-0.7-1.5-1.5-2.9-2.3-4.4l-6.4,3.1c0.8,1.5,1.5,2.9,2.3,4.5L291.7,86.9z"></path>
&#x9;&#x9;&#x9;<path id="id_dc104" class="st0" d="M293.5,91.1c-0.6-1.4-1.2-2.8-1.8-4.2l-6.4,3.2c0.5,1.1,1,2.3,1.4,3.4L293.5,91.1z"></path>
&#x9;&#x9;&#x9;<path id="id_dc105" class="st0" d="M295.2,96c-0.5-1.6-1.1-3.2-1.7-4.8l-6.8,2.4c0.6,1.5,1.1,3.1,1.6,4.7L295.2,96z"></path>
&#x9;&#x9;&#x9;<path id="id_dc106" class="st0" d="M296.5,101c-0.4-1.7-0.8-3.4-1.3-5l-6.9,2.3c0.4,1.4,0.8,2.8,1.1,4.3L296.5,101z"></path>
&#x9;&#x9;&#x9;<path id="id_dc107" class="st0" d="M297.4,105.3c-0.2-1.5-0.5-2.9-0.8-4.4l-7.2,1.5c0.3,1.3,0.6,2.7,0.8,4.2L297.4,105.3z"></path>
&#x9;&#x9;&#x9;<path id="id_dc108" class="st0" d="M297.9,110.2c-0.1-1.7-0.3-3.3-0.6-4.9l-7.2,1.3c0.2,1.3,0.4,2.7,0.4,4L297.9,110.2z"></path>
&#x9;&#x9;&#x9;<path id="id_dc109" class="st0" d="M298.1,114.3c0-1.4-0.1-2.7-0.2-4.1l-7.4,0.5c0.1,1.3,0.2,2.5,0.2,3.8L298.1,114.3z"></path>
&#x9;&#x9;&#x9;<path id="id_dc110" class="st0" d="M298.2,117.9v-3.6l-7.4,0.2v3.4L298.2,117.9z"></path>
&#x9;&#x9;&#x9;<path id="id_dc111" class="st0" d="M298.2,121.7v-3.8l-7.4,0v4.2L298.2,121.7z"></path>
&#x9;&#x9;&#x9;<path id="id_dc112" class="st0" d="M298.2,127.2v-5.5l-7.4,0.4v5.2L298.2,127.2z"></path>
&#x9;&#x9;&#x9;<path id="id_dc113" class="st0" d="M298.2,131.9v-4.6l-7.4,0v4.6H298.2z"></path>
&#x9;&#x9;&#x9;<path id="id_dc114" class="st0" d="M298.1,131.9h-7.4v4.8h7.4V131.9z"></path>
&#x9;&#x9;&#x9;<path id="id_dc115" class="st0" d="M298.1,136.7h-7.4v5.3h7.4V136.7z"></path>
&#x9;&#x9;&#x9;<path id="id_dc116" class="st0" d="M298.1,142h-7.4v5.3h7.4V142z"></path>
&#x9;&#x9;&#x9;<path id="id_dc117" class="st0" d="M298.1,147.3h-7.4v4.8h7.4V147.3z"></path>
&#x9;&#x9;&#x9;<path id="id_dc118" class="st0" d="M298.2,152.1v4.7l-7.4-0.1v-4.6H298.2z"></path>
&#x9;&#x9;&#x9;<path id="id_dc119" class="st0" d="M298.2,156.8v5.5l-7.4-0.4v-5.2L298.2,156.8z"></path>
&#x9;&#x9;&#x9;<path id="id_dc120" class="st0" d="M298.2,162.3v3.8l-7.4,0v-4.2L298.2,162.3z"></path>
&#x9;&#x9;&#x9;<path id="id_dc121" class="st0" d="M298.2,166.1v3.6l-7.4-0.2v-3.4L298.2,166.1z"></path>
&#x9;&#x9;&#x9;<path id="id_dc122" class="st0" d="M298.1,169.7c0,1.4-0.1,2.7-0.2,4.1l-7.4-0.5c0.1-1.3,0.2-2.5,0.2-3.8L298.1,169.7z"></path>
&#x9;&#x9;&#x9;<path id="id_dc123" class="st0" d="M297.9,173.8c-0.1,1.7-0.3,3.3-0.6,4.9l-7.2-1.3c0.2-1.3,0.4-2.7,0.4-4L297.9,173.8z"></path>
&#x9;&#x9;&#x9;<path id="id_dc124" class="st0" d="M297.4,178.7c-0.2,1.5-0.5,2.9-0.8,4.4l-7.2-1.5c0.3-1.3,0.6-2.7,0.8-4.2L297.4,178.7z"></path>
&#x9;&#x9;&#x9;<path id="id_dc125" class="st0" d="M296.5,183c-0.4,1.7-0.8,3.4-1.3,5l-6.9-2.3c0.4-1.4,0.8-2.8,1.1-4.3L296.5,183z"></path>
&#x9;&#x9;&#x9;<path id="id_dc126" class="st0" d="M295.2,188c-0.5,1.6-1.1,3.2-1.7,4.8l-6.8-2.4c0.6-1.5,1.1-3.1,1.6-4.7L295.2,188z"></path>
&#x9;&#x9;&#x9;<path id="id_dc127" class="st0" d="M293.5,192.9c-0.6,1.4-1.2,2.8-1.8,4.2l-6.4-3.2c0.5-1.1,1-2.3,1.4-3.4L293.5,192.9z"></path>
&#x9;&#x9;&#x9;<path id="id_dc128" class="st0" d="M291.7,197.1c-0.7,1.5-1.5,2.9-2.3,4.4l-6.4-3.1c0.8-1.5,1.5-2.9,2.3-4.5L291.7,197.1z"></path>
&#x9;&#x9;&#x9;<path id="id_dc129" class="st0" d="M289.5,201.5c-0.8,1.4-1.7,2.8-2.5,4.2l-6.1-3.5c0.8-1.2,1.5-2.5,2.3-3.7L289.5,201.5z"></path>
&#x9;&#x9;&#x9;<path id="id_dc130" class="st0" d="M286.9,205.6c-0.9,1.3-1.8,2.6-2.8,4l-5.8-4c0.9-1.1,1.7-2.3,2.5-3.5L286.9,205.6z"></path>
&#x9;&#x9;&#x9;<path id="id_dc131" class="st0" d="M284.1,209.6c-0.9,1.3-1.9,2.5-3,3.6l-5.3-4.4c0.9-1,1.7-2.1,2.5-3.2L284.1,209.6z"></path>
&#x9;&#x9;&#x9;<path id="id_dc132" class="st0" d="M281.1,213.2c-1,1.2-2.1,2.3-3.2,3.4l-4.9-4.8c1-1,1.9-2.1,2.8-3.1L281.1,213.2z"></path>
&#x9;&#x9;&#x9;<path id="id_dc133" class="st0" d="M277.9,216.7c-1.1,1.1-2.2,2.1-3.3,3.1l-4.6-5c1-0.9,2.1-1.9,3-2.9L277.9,216.7z"></path>
&#x9;&#x9;&#x9;<path id="id_dc134" class="st0" d="M274.5,219.8c-1.1,0.9-2.1,1.8-3.2,2.7l-4.4-5.1c1-0.8,2.1-1.7,3-2.6L274.5,219.8z"></path>
&#x9;&#x9;&#x9;<path id="id_dc135" class="st0" d="M271.3,222.4c-1.4,1.1-2.9,2.1-4.4,3.1l-4-5.3c1.4-0.9,2.7-1.9,4-2.9L271.3,222.4z"></path>
&#x9;&#x9;&#x9;<path id="id_dc136" class="st0" d="M266.9,225.5c-1.2,0.8-2.5,1.5-3.8,2.3l-3.7-5.4c1.2-0.7,2.3-1.4,3.4-2.1L266.9,225.5z"></path>
&#x9;&#x9;&#x9;<path id="id_dc137" class="st0" d="M263.1,227.8c-1.5,0.8-3,1.7-4.6,2.4l-3-5.7c1.3-0.7,2.7-1.3,4-2.1L263.1,227.8z"></path>
&#x9;&#x9;&#x9;<path id="id_dc138" class="st0" d="M258.5,230.2c-1.4,0.6-2.8,1.3-4.2,1.8l-2.7-5.7c1.3-0.6,2.6-1.1,3.9-1.7L258.5,230.2z"></path>
&#x9;&#x9;&#x9;<path id="id_dc139" class="st0" d="M254.2,232c-1.7,0.6-3.4,1.2-5.1,1.7l-2.5-5.8c1.6-0.5,3.3-1.1,4.9-1.7L254.2,232z"></path>
&#x9;&#x9;&#x9;<path id="id_dc140" class="st0" d="M249.1,233.8c-1.7,0.5-3.4,0.9-5.2,1.3l-2.1-5.8c1.6-0.4,3.2-0.8,4.8-1.3L249.1,233.8z"></path>
&#x9;&#x9;&#x9;<path id="id_dc141" class="st0" d="M244,235.1c-1.7,0.4-3.4,0.7-5.1,0.9l-1.6-5.9c1.6-0.2,3.1-0.5,4.6-0.9L244,235.1z"></path>
&#x9;&#x9;&#x9;<path id="id_dc142" class="st0" d="M238.8,236c-1.4,0.2-2.8,0.4-4.3,0.4l-1.3-5.9c1.4-0.1,2.6-0.2,4-0.4L238.8,236z"></path>
&#x9;&#x9;&#x9;<path id="id_dc143" class="st0" d="M234.5,236.4c-1.4,0.1-4.1,0.2-5.5,0.2l-1.2-5.9c1.4,0,4.1-0.1,5.4-0.2L234.5,236.4z"></path>
&#x9;&#x9;&#x9;<path id="id_dc144" class="st0" d="M229,236.6h-5l-1.1-5.9h4.9L229,236.6z"></path>
&#x9;&#x9;&#x9;<path id="id_dc145" class="st0" d="M224,236.6h-5.4l-0.9-5.9h5.1L224,236.6z"></path>
&#x9;&#x9;&#x9;<path id="id_dc146" class="st0" d="M218.6,236.6h-5.4l-0.6-5.9h5.2L218.6,236.6z"></path>
&#x9;&#x9;&#x9;<path id="id_dc147" class="st0" d="M207.8,230.8h4.8l0.6,5.9H208L207.8,230.8z"></path>
&#x9;&#x9;&#x9;<path id="id_dc148" class="st0" d="M208,236.6h-4.9l-0.3-5.9h4.9L208,236.6z"></path>
&#x9;&#x9;&#x9;<path id="id_dc149" class="st0" d="M203.1,236.6h-5l-0.2-5.9h5L203.1,236.6z"></path>
&#x9;&#x9;&#x9;<path id="id_dc150" class="st0" d="M198.1,236.6h-4.4l-0.2-5.9h4.4L198.1,236.6z"></path>
&#x9;&#x9;&#x9;<g id="DiamondClub_Numbers">
&#x9;&#x9;&#x9;&#x9;<text transform="matrix(1 -2.094394e-03 2.094394e-03 1 153.1053 234.8366)" class="st1 st2 st6">1</text>
&#x9;&#x9;&#x9;&#x9;<text transform="matrix(1 -2.094394e-03 2.094394e-03 1 147.9061 234.8172)" class="st1 st2 st6">2</text>
&#x9;&#x9;&#x9;&#x9;<text transform="matrix(1 -2.094394e-03 2.094394e-03 1 143.0171 234.8172)" class="st1 st2 st6">3</text>
&#x9;&#x9;&#x9;&#x9;<text transform="matrix(1 -2.094394e-03 2.094394e-03 1 137.962 234.8165)" class="st1 st2 st6">4</text>
&#x9;&#x9;&#x9;&#x9;<text transform="matrix(1 -2.094394e-03 2.094394e-03 1 133.3711 234.9282)" class="st1 st2 st6">5</text>
&#x9;&#x9;&#x9;&#x9;<text transform="matrix(1 -2.094394e-03 2.094394e-03 1 128.1087 234.8333)" class="st1 st2 st6">6</text>
&#x9;&#x9;&#x9;&#x9;<text transform="matrix(1 -2.094394e-03 2.094394e-03 1 122.612 234.9283)" class="st1 st2 st6">7</text>
&#x9;&#x9;&#x9;&#x9;<text transform="matrix(1 -2.094394e-03 2.094394e-03 1 117.1541 234.9244)" class="st1 st2 st6">8</text>
&#x9;&#x9;&#x9;&#x9;<text transform="matrix(1 -2.094394e-03 2.094394e-03 1 112.5846 234.6364)" class="st1 st2 st6">9</text>
&#x9;&#x9;&#x9;&#x9;<text transform="matrix(1 -2.094394e-03 2.094394e-03 1 107.4948 233.8326)" class="st1 st2 st6">10</text>
&#x9;&#x9;&#x9;&#x9;<g id="_x31_1_x5F_2">
&#x9;&#x9;&#x9;&#x9;&#x9;<text transform="matrix(1 -2.094394e-03 2.094394e-03 1 104.0904 232.6304)" class="st1 st2 st6">1</text>
&#x9;&#x9;&#x9;&#x9;&#x9;<text transform="matrix(1 -2.094394e-03 2.094394e-03 1 102.9801 232.6327)" class="st1 st2 st6">1</text>
&#x9;&#x9;&#x9;&#x9;</g>
&#x9;&#x9;&#x9;&#x9;<text transform="matrix(1 -2.094394e-03 2.094394e-03 1 97.6163 231.1563)" class="st1 st2 st6">12</text>
&#x9;&#x9;&#x9;&#x9;<text transform="matrix(1 -2.094394e-03 2.094394e-03 1 93.0309 229.5963)" class="st1 st2 st6">13</text>
&#x9;&#x9;&#x9;&#x9;<text transform="matrix(1 -2.094394e-03 2.094394e-03 1 88.6139 227.5926)" class="st1 st2 st6">14</text>
&#x9;&#x9;&#x9;&#x9;<text transform="matrix(1 -2.094394e-03 2.094394e-03 1 84.9986 225.3163)" class="st1 st2 st6">15 </text>
&#x9;&#x9;&#x9;&#x9;<text transform="matrix(1 -2.094394e-03 2.094394e-03 1 80.961 222.5135)" class="st1 st2 st6">16</text>
&#x9;&#x9;&#x9;&#x9;<text transform="matrix(1 -2.094394e-03 2.094394e-03 1 77.5851 219.9224)" class="st1 st2 st6">17</text>
&#x9;&#x9;&#x9;&#x9;<text transform="matrix(1 -2.094394e-03 2.094394e-03 1 74.0162 216.8845)" class="st1 st2 st6">18</text>
&#x9;&#x9;&#x9;&#x9;<text transform="matrix(1 -2.094394e-03 2.094394e-03 1 71.1608 213.8105)" class="st1 st2 st6">19</text>
&#x9;&#x9;&#x9;&#x9;<text transform="matrix(1 -2.094394e-03 2.094394e-03 1 67.7252 210.5082)" class="st1 st2 st6">20</text>
&#x9;&#x9;&#x9;&#x9;<text transform="matrix(1 -2.094394e-03 2.094394e-03 1 65.6944 206.9283)" class="st1 st2 st6">21</text>
&#x9;&#x9;&#x9;&#x9;<text transform="matrix(1 -2.094394e-03 2.094394e-03 1 62.836 203.0319)" class="st1 st2 st6">22</text>
&#x9;&#x9;&#x9;&#x9;<text transform="matrix(1 -2.094394e-03 2.094394e-03 1 60.2755 198.9239)" class="st1 st2 st6">23</text>
&#x9;&#x9;&#x9;&#x9;<text transform="matrix(1 -2.094394e-03 2.094394e-03 1 58.296 194.6891)" class="st1 st2 st6">24</text>
&#x9;&#x9;&#x9;&#x9;<text transform="matrix(1 -2.094394e-03 2.094394e-03 1 56.7853 190.4529)" class="st1 st2 st6">25</text>
&#x9;&#x9;&#x9;&#x9;<text transform="matrix(1 -2.094394e-03 2.094394e-03 1 55.3243 185.7861)" class="st1 st2 st6">26</text>
&#x9;&#x9;&#x9;&#x9;<text transform="matrix(1 -2.094394e-03 2.094394e-03 1 54.6632 181.237)" class="st1 st2 st6">27</text>
&#x9;&#x9;&#x9;&#x9;<text transform="matrix(1 -2.094394e-03 2.094394e-03 1 53.8444 177.0441)" class="st1 st2 st6">28</text>
&#x9;&#x9;&#x9;&#x9;<text transform="matrix(1 -2.094394e-03 2.094394e-03 1 53.6548 172.8331)" class="st1 st2 st6">29</text>
&#x9;&#x9;&#x9;&#x9;<text transform="matrix(1 -2.094394e-03 2.094394e-03 1 53.4889 168.9742)" class="st1 st2 st6">30</text>
&#x9;&#x9;&#x9;&#x9;<text transform="matrix(1 -2.094394e-03 2.094394e-03 1 53.7491 165.1573)" class="st1 st2 st6">31</text>
&#x9;&#x9;&#x9;&#x9;<text transform="matrix(1 -2.094394e-03 2.094394e-03 1 53.6182 160.5689)" class="st1 st2 st6">32</text>
&#x9;&#x9;&#x9;&#x9;<text transform="matrix(1 -2.094394e-03 2.094394e-03 1 53.6129 155.5249)" class="st1 st2 st6">33</text>
&#x9;&#x9;&#x9;&#x9;<text transform="matrix(1 -2.094394e-03 2.094394e-03 1 53.4522 150.7982)" class="st1 st2 st6">34</text>
&#x9;&#x9;&#x9;&#x9;<text transform="matrix(1 -2.094394e-03 2.094394e-03 1 53.5035 145.9439)" class="st1 st2 st6">35 </text>
&#x9;&#x9;&#x9;&#x9;<text transform="matrix(1 -2.094394e-03 2.094394e-03 1 53.4327 140.4351)" class="st1 st2 st6">36 </text>
&#x9;&#x9;&#x9;&#x9;<text transform="matrix(1 -2.094394e-03 2.094394e-03 1 53.6421 135.332)" class="st1 st2 st6">37 </text>
&#x9;&#x9;&#x9;&#x9;<text transform="matrix(1 -2.094394e-03 2.094394e-03 1 53.4015 130.6252)" class="st1 st2 st6">38 </text>
&#x9;&#x9;&#x9;&#x9;<text transform="matrix(1 -2.094394e-03 2.094394e-03 1 53.4161 125.814)" class="st1 st2 st6">39 </text>
&#x9;&#x9;&#x9;&#x9;<text transform="matrix(1 -2.094394e-03 2.094394e-03 1 53.1021 121.0205)" class="st1 st2 st6">40</text>
&#x9;&#x9;&#x9;&#x9;<text transform="matrix(1 -2.094394e-03 2.094394e-03 1 53.5396 117.3805)" class="st1 st2 st6">41</text>
&#x9;&#x9;&#x9;&#x9;<text transform="matrix(1 -2.094394e-03 2.094394e-03 1 53.4762 113.3732)" class="st1 st2 st6">42</text>
&#x9;&#x9;&#x9;&#x9;<text transform="matrix(1 -2.094394e-03 2.094394e-03 1 53.8077 109.2972)" class="st1 st2 st6">43</text>
&#x9;&#x9;&#x9;&#x9;<text transform="matrix(1 -2.094394e-03 2.094394e-03 1 53.9098 105.0555)" class="st1 st2 st6">44</text>
&#x9;&#x9;&#x9;&#x9;<text transform="matrix(1 -2.094394e-03 2.094394e-03 1 55.0245 100.7098)" class="st1 st2 st6">45</text>
&#x9;&#x9;&#x9;&#x9;<text transform="matrix(1 -2.094394e-03 2.094394e-03 1 56.2066 95.7761)" class="st1 st2 st6">46</text>
&#x9;&#x9;&#x9;&#x9;<text transform="matrix(1 -2.094394e-03 2.094394e-03 1 58.006 91.5638)" class="st1 st2 st6">47</text>
&#x9;&#x9;&#x9;&#x9;<text transform="matrix(1 -2.094394e-03 2.094394e-03 1 59.8477 87.5559)" class="st1 st2 st6">48</text>
&#x9;&#x9;&#x9;&#x9;<text transform="matrix(1 -2.094394e-03 2.094394e-03 1 62.2208 83.2944)" class="st1 st2 st6">49</text>
&#x9;&#x9;&#x9;&#x9;<text transform="matrix(1 -2.094394e-03 2.094394e-03 1 65.2222 79.4591)" class="st1 st2 st6">50</text>
&#x9;&#x9;&#x9;&#x9;<text transform="matrix(1 -2.094394e-03 2.094394e-03 1 68.1353 75.6712)" class="st1 st2 st6">51</text>
&#x9;&#x9;&#x9;&#x9;<text transform="matrix(1 -2.094394e-03 2.094394e-03 1 70.9801 72.4227)" class="st1 st2 st6">52</text>
&#x9;&#x9;&#x9;&#x9;<text transform="matrix(1 -2.094394e-03 2.094394e-03 1 74.0836 69.4098)" class="st1 st2 st6">53</text>
&#x9;&#x9;&#x9;&#x9;<text transform="matrix(1 -2.094394e-03 2.094394e-03 1 77.1231 66.4188)" class="st1 st2 st6">54</text>
&#x9;&#x9;&#x9;&#x9;<text transform="matrix(1 -2.094394e-03 2.094394e-03 1 80.7945 63.6166)" class="st1 st2 st6">55</text>
&#x9;&#x9;&#x9;&#x9;<text transform="matrix(1 -2.094394e-03 2.094394e-03 1 84.628 61.0061)" class="st1 st2 st6">56</text>
&#x9;&#x9;&#x9;&#x9;<text transform="matrix(1 -2.094394e-03 2.094394e-03 1 88.6764 59.0659)" class="st1 st2 st6">57</text>
&#x9;&#x9;&#x9;&#x9;<text transform="matrix(1 -2.094394e-03 2.094394e-03 1 92.9532 56.8461)" class="st1 st2 st6">58</text>
&#x9;&#x9;&#x9;&#x9;<text transform="matrix(1 -2.094394e-03 2.094394e-03 1 97.2857 55.2243)" class="st1 st2 st6">59</text>
&#x9;&#x9;&#x9;&#x9;<text transform="matrix(1 -2.094394e-03 2.094394e-03 1 102.0512 53.5302)" class="st1 st2 st6">60</text>
&#x9;&#x9;&#x9;&#x9;<text transform="matrix(1 -2.094394e-03 2.094394e-03 1 107.3625 52.3433)" class="st1 st2 st6">61</text>
&#x9;&#x9;&#x9;&#x9;<text transform="matrix(1 -2.094394e-03 2.094394e-03 1 111.6863 51.8093)" class="st1 st2 st6">62</text>
&#x9;&#x9;&#x9;&#x9;<text transform="matrix(1 -2.094394e-03 2.094394e-03 1 116.0723 51.4336)" class="st1 st2 st6">63</text>
&#x9;&#x9;&#x9;&#x9;<text transform="matrix(1 -2.094394e-03 2.094394e-03 1 119.8592 51.435)" class="st1 st2 st6">64</text>
&#x9;&#x9;&#x9;&#x9;<text transform="matrix(1 -2.094394e-03 2.094394e-03 1 124.4083 51.4336)" class="st1 st2 st6">65</text>
&#x9;&#x9;&#x9;&#x9;<text transform="matrix(1 -2.094394e-03 2.094394e-03 1 128.3519 51.4337)" class="st1 st2 st6">66</text>
&#x9;&#x9;&#x9;&#x9;<text transform="matrix(1 -2.094394e-03 2.094394e-03 1 132.6134 51.4336)" class="st1 st2 st6">67</text>
&#x9;&#x9;&#x9;&#x9;<text transform="matrix(1 -2.094394e-03 2.094394e-03 1 137.0743 51.3941)" class="st1 st2 st6">68</text>
&#x9;&#x9;&#x9;&#x9;<text transform="matrix(1 -2.094394e-03 2.094394e-03 1 142.2179 51.4337)" class="st1 st2 st6">69</text>
&#x9;&#x9;&#x9;&#x9;<text transform="matrix(1 -2.094394e-03 2.094394e-03 1 147.0848 51.4337)" class="st1 st2 st6">70</text>
&#x9;&#x9;&#x9;&#x9;<text transform="matrix(1 -2.094394e-03 2.094394e-03 1 152.1942 51.4318)" class="st1 st2 st6">71</text>
&#x9;&#x9;&#x9;&#x9;<text transform="matrix(1 -2.094394e-03 2.094394e-03 1 156.6886 51.4335)" class="st1 st2 st6">72</text>
&#x9;&#x9;&#x9;&#x9;<text transform="matrix(1 -2.094394e-03 2.094394e-03 1 161.6283 51.4335)" class="st1 st2 st6">73</text>
&#x9;&#x9;&#x9;&#x9;<text transform="matrix(1 -2.094394e-03 2.094394e-03 1 166.2767 51.4336)" class="st1 st2 st6">74</text>
&#x9;&#x9;&#x9;&#x9;<text transform="matrix(1 -2.094394e-03 2.094394e-03 1 170.837 51.4334)" class="st1 st2 st6">75</text>
&#x9;&#x9;&#x9;&#x9;<text transform="matrix(1 -2.094394e-03 2.094394e-03 1 175.2075 51.4336)" class="st1 st2 st6">76</text>
&#x9;&#x9;&#x9;&#x9;<text transform="matrix(1 -2.094394e-03 2.094394e-03 1 179.5765 51.4336)" class="st1 st2 st6">77</text>
&#x9;&#x9;&#x9;&#x9;<text transform="matrix(1 -2.094394e-03 2.094394e-03 1 184.241 51.4336)" class="st1 st2 st6">78</text>
&#x9;&#x9;&#x9;&#x9;<text transform="matrix(1 -2.094394e-03 2.094394e-03 1 189.2012 51.4336)" class="st1 st2 st6">79</text>
&#x9;&#x9;&#x9;&#x9;<text transform="matrix(1 -2.094394e-03 2.094394e-03 1 193.8416 51.435)" class="st1 st2 st6">80</text>
&#x9;&#x9;&#x9;&#x9;<text transform="matrix(1 -2.094394e-03 2.094394e-03 1 198.8799 51.433)" class="st1 st2 st6">81</text>
&#x9;&#x9;&#x9;&#x9;<text transform="matrix(1 -2.094394e-03 2.094394e-03 1 203.5958 51.4336)" class="st1 st2 st6">82</text>
&#x9;&#x9;&#x9;&#x9;<text transform="matrix(1 -2.094394e-03 2.094394e-03 1 208.6207 51.4336)" class="st1 st2 st6">83</text>
&#x9;&#x9;&#x9;&#x9;<text transform="matrix(1 -2.094394e-03 2.094394e-03 1 212.9507 51.435)" class="st1 st2 st6">84</text>
&#x9;&#x9;&#x9;&#x9;<text transform="matrix(1 -2.094394e-03 2.094394e-03 1 217.4368 51.4336)" class="st1 st2 st6">85</text>
&#x9;&#x9;&#x9;&#x9;<text transform="matrix(1 -2.094394e-03 2.094394e-03 1 221.4673 51.4338)" class="st1 st2 st6">86</text>
&#x9;&#x9;&#x9;&#x9;<text transform="matrix(1 -2.094394e-03 2.094394e-03 1 225.7317 51.4337)" class="st1 st2 st6">87</text>
&#x9;&#x9;&#x9;&#x9;<text transform="matrix(1 -2.094394e-03 2.094394e-03 1 229.8138 51.435)" class="st1 st2 st6">88</text>
&#x9;&#x9;&#x9;&#x9;<text transform="matrix(1 -2.094394e-03 2.094394e-03 1 234.0323 51.8095)" class="st1 st2 st6">89</text>
&#x9;&#x9;&#x9;&#x9;<text transform="matrix(1 -2.094394e-03 2.094394e-03 1 238.6782 52.4424)" class="st1 st2 st6">90</text>
&#x9;&#x9;&#x9;&#x9;<text transform="matrix(1 -2.094394e-03 2.094394e-03 1 243.9825 53.4661)" class="st1 st2 st6">91</text>
&#x9;&#x9;&#x9;&#x9;<text transform="matrix(1 -2.094394e-03 2.094394e-03 1 248.6673 55.2243)" class="st1 st2 st6">92</text>
&#x9;&#x9;&#x9;&#x9;<text transform="matrix(1 -2.094394e-03 2.094394e-03 1 253.2339 56.8904)" class="st1 st2 st6">93</text>
&#x9;&#x9;&#x9;&#x9;<text transform="matrix(1 -2.094394e-03 2.094394e-03 1 257.0742 58.8949)" class="st1 st2 st6">94</text>
&#x9;&#x9;&#x9;&#x9;<text transform="matrix(1 -2.094394e-03 2.094394e-03 1 261.2163 61.2266)" class="st1 st2 st6">95</text>
&#x9;&#x9;&#x9;&#x9;<text transform="matrix(1 -2.094394e-03 2.094394e-03 1 265.0189 63.725)" class="st1 st2 st6">96</text>
&#x9;&#x9;&#x9;&#x9;<text transform="matrix(1 -2.094394e-03 2.094394e-03 1 268.8954 66.7795)" class="st1 st2 st6">97</text>
&#x9;&#x9;&#x9;&#x9;<text transform="matrix(1 -2.094394e-03 2.094394e-03 1 272.0063 69.4102)" class="st1 st2 st6">98</text>
&#x9;&#x9;&#x9;&#x9;<text transform="matrix(1 -2.094394e-03 2.094394e-03 1 275.5209 72.3588)" class="st1 st2 st6">99</text>
&#x9;&#x9;&#x9;&#x9;<text transform="matrix(1 -2.094394e-03 2.094394e-03 1 277.898 76.0799)" class="st1 st2 st7">100</text>
&#x9;&#x9;&#x9;&#x9;<text transform="matrix(1 -2.094394e-03 2.094394e-03 1 280.7573 79.5872)" class="st1 st2 st7">101</text>
&#x9;&#x9;&#x9;&#x9;<text transform="matrix(1 -2.094394e-03 2.094394e-03 1 283.0714 83.3976)" class="st1 st2 st7">102</text>
&#x9;&#x9;&#x9;&#x9;<text transform="matrix(1 -2.094394e-03 2.094394e-03 1 285.3704 87.5237)" class="st1 st2 st7">103</text>
&#x9;&#x9;&#x9;&#x9;<text transform="matrix(1 -2.094394e-03 2.094394e-03 1 287.4087 91.7067)" class="st1 st2 st7">104</text>
&#x9;&#x9;&#x9;&#x9;<text transform="matrix(1 -2.094394e-03 2.094394e-03 1 289.0453 96.1735)" class="st1 st2 st7">105</text>
&#x9;&#x9;&#x9;&#x9;<text transform="matrix(1 -2.094394e-03 2.094394e-03 1 290.3938 100.6396)" class="st1 st2 st7">106</text>
&#x9;&#x9;&#x9;&#x9;<text transform="matrix(1 -2.094394e-03 2.094394e-03 1 291.4194 105.1463)" class="st1 st2 st7">107</text>
&#x9;&#x9;&#x9;&#x9;<text transform="matrix(1 -2.094394e-03 2.094394e-03 1 292.1692 109.5814)" class="st1 st2 st7">108</text>
&#x9;&#x9;&#x9;&#x9;<text transform="matrix(1 -2.094394e-03 2.094394e-03 1 292.4748 113.6574)" class="st1 st2 st7">109</text>
&#x9;&#x9;&#x9;&#x9;<g id="_x31_10">
&#x9;&#x9;&#x9;&#x9;&#x9;<text transform="matrix(1 -2.094394e-03 2.094394e-03 1 293.6595 117.3929)" class="st1 st2 st7">10</text>
&#x9;&#x9;&#x9;&#x9;&#x9;<text transform="matrix(1 -2.094394e-03 2.094394e-03 1 292.7713 117.3947)" class="st1 st2 st7">1</text>
&#x9;&#x9;&#x9;&#x9;</g>
&#x9;&#x9;&#x9;&#x9;<g id="_x31_11">
&#x9;&#x9;&#x9;&#x9;&#x9;<text transform="matrix(1 -2.094394e-03 2.094394e-03 1 294.9041 121.0893)" class="st1 st2 st7">1</text>
&#x9;&#x9;&#x9;&#x9;&#x9;<text transform="matrix(1 -2.094394e-03 2.094394e-03 1 293.1275 121.093)" class="st1 st2 st7">11</text>
&#x9;&#x9;&#x9;&#x9;</g>
&#x9;&#x9;&#x9;&#x9;<g id="_x31_12">
&#x9;&#x9;&#x9;&#x9;&#x9;<text transform="matrix(1 -2.094394e-03 2.094394e-03 1 293.7709 125.5827)" class="st1 st2 st7">12</text>
&#x9;&#x9;&#x9;&#x9;&#x9;<text transform="matrix(1 -2.094394e-03 2.094394e-03 1 292.8826 125.5845)" class="st1 st2 st7">1</text>
&#x9;&#x9;&#x9;&#x9;</g>
&#x9;&#x9;&#x9;&#x9;<g id="_x31_13">
&#x9;&#x9;&#x9;&#x9;&#x9;<text transform="matrix(1 -2.094394e-03 2.094394e-03 1 293.7732 130.7367)" class="st1 st2 st7">13</text>
&#x9;&#x9;&#x9;&#x9;&#x9;<text transform="matrix(1 -2.094394e-03 2.094394e-03 1 292.8849 130.7385)" class="st1 st2 st7">1</text>
&#x9;&#x9;&#x9;&#x9;</g>
&#x9;&#x9;&#x9;&#x9;<g id="_x31_14">
&#x9;&#x9;&#x9;&#x9;&#x9;<text transform="matrix(1 -2.094394e-03 2.094394e-03 1 293.6572 135.3929)" class="st1 st2 st7">14</text>
&#x9;&#x9;&#x9;&#x9;&#x9;<text transform="matrix(1 -2.094394e-03 2.094394e-03 1 292.7689 135.3948)" class="st1 st2 st7">1</text>
&#x9;&#x9;&#x9;&#x9;</g>
&#x9;&#x9;&#x9;&#x9;<g id="_x31_15">
&#x9;&#x9;&#x9;&#x9;&#x9;<text transform="matrix(1 -2.094394e-03 2.094394e-03 1 293.7709 140.3927)" class="st1 st2 st7">15</text>
&#x9;&#x9;&#x9;&#x9;&#x9;<text transform="matrix(1 -2.094394e-03 2.094394e-03 1 292.8826 140.3945)" class="st1 st2 st7">1</text>
&#x9;&#x9;&#x9;&#x9;</g>
&#x9;&#x9;&#x9;&#x9;<g id="_x31_16">
&#x9;&#x9;&#x9;&#x9;&#x9;<text transform="matrix(1 -2.094394e-03 2.094394e-03 1 293.7193 145.7878)" class="st1 st2 st7">16</text>
&#x9;&#x9;&#x9;&#x9;&#x9;<text transform="matrix(1 -2.094394e-03 2.094394e-03 1 292.831 145.7896)" class="st1 st2 st7">1</text>
&#x9;&#x9;&#x9;&#x9;</g>
&#x9;&#x9;&#x9;&#x9;<g id="_x31_17">
&#x9;&#x9;&#x9;&#x9;&#x9;<text transform="matrix(1 -2.094394e-03 2.094394e-03 1 293.7427 150.9317)" class="st1 st2 st7">17</text>
&#x9;&#x9;&#x9;&#x9;&#x9;<text transform="matrix(1 -2.094394e-03 2.094394e-03 1 292.8545 150.9336)" class="st1 st2 st7">1</text>
&#x9;&#x9;&#x9;&#x9;</g>
&#x9;&#x9;&#x9;&#x9;<g id="_x31_18">
&#x9;&#x9;&#x9;&#x9;&#x9;<text transform="matrix(1 -2.094394e-03 2.094394e-03 1 293.6877 155.5598)" class="st1 st2 st7">18</text>
&#x9;&#x9;&#x9;&#x9;&#x9;<text transform="matrix(1 -2.094394e-03 2.094394e-03 1 292.7994 155.5617)" class="st1 st2 st7">1</text>
&#x9;&#x9;&#x9;&#x9;</g>
&#x9;&#x9;&#x9;&#x9;<g id="_x31_19">
&#x9;&#x9;&#x9;&#x9;&#x9;<text transform="matrix(1 -2.094394e-03 2.094394e-03 1 293.7193 160.7138)" class="st1 st2 st7">19</text>
&#x9;&#x9;&#x9;&#x9;&#x9;<text transform="matrix(1 -2.094394e-03 2.094394e-03 1 292.831 160.7156)" class="st1 st2 st7">1</text>
&#x9;&#x9;&#x9;&#x9;</g>
&#x9;&#x9;&#x9;&#x9;<text transform="matrix(1 -2.094394e-03 2.094394e-03 1 292.5275 165.2163)" class="st1 st2 st7">120</text>
&#x9;&#x9;&#x9;&#x9;<text transform="matrix(1 -2.094394e-03 2.094394e-03 1 292.8826 169.0745)" class="st1 st2 st7">121</text>
&#x9;&#x9;&#x9;&#x9;<text transform="matrix(1 -2.094394e-03 2.094394e-03 1 292.6377 172.683)" class="st1 st2 st7">122</text>
&#x9;&#x9;&#x9;&#x9;<text transform="matrix(1 -2.094394e-03 2.094394e-03 1 292.185 176.901)" class="st1 st2 st7">123</text>
&#x9;&#x9;&#x9;&#x9;<text transform="matrix(1 -2.094394e-03 2.094394e-03 1 291.4604 181.2402)" class="st1 st2 st7">124</text>
&#x9;&#x9;&#x9;&#x9;<text transform="matrix(1 -2.094394e-03 2.094394e-03 1 290.5817 185.571)" class="st1 st2 st7">125</text>
&#x9;&#x9;&#x9;&#x9;<text transform="matrix(1 -2.094394e-03 2.094394e-03 1 288.9963 190.4411)" class="st1 st2 st7">126</text>
&#x9;&#x9;&#x9;&#x9;<text transform="matrix(1 -2.094394e-03 2.094394e-03 1 287.6067 194.5701)" class="st1 st2 st7">127</text>
&#x9;&#x9;&#x9;&#x9;<text transform="matrix(1 -2.094394e-03 2.094394e-03 1 285.4545 198.6992)" class="st1 st2 st7">128</text>
&#x9;&#x9;&#x9;&#x9;<text transform="matrix(1 -2.094394e-03 2.094394e-03 1 283.2511 202.9761)" class="st1 st2 st7">129</text>
&#x9;&#x9;&#x9;&#x9;<text transform="matrix(1 -2.094394e-03 2.094394e-03 1 280.7017 206.7143)" class="st1 st2 st7">130</text>
&#x9;&#x9;&#x9;&#x9;<text transform="matrix(1 -2.094394e-03 2.094394e-03 1 278.259 210.5965)" class="st1 st2 st7">131</text>
&#x9;&#x9;&#x9;&#x9;<text transform="matrix(1 -2.094394e-03 2.094394e-03 1 275.0639 213.828)" class="st1 st2 st7">132</text>
&#x9;&#x9;&#x9;&#x9;<text transform="matrix(1 -2.094394e-03 2.094394e-03 1 272.0992 217.045)" class="st1 st2 st7">133</text>
&#x9;&#x9;&#x9;&#x9;<text transform="matrix(1 -2.094394e-03 2.094394e-03 1 268.7733 219.7093)" class="st1 st2 st7">134</text>
&#x9;&#x9;&#x9;&#x9;<text transform="matrix(1 -2.094394e-03 2.094394e-03 1 265.0617 222.628)" class="st1 st2 st7">135</text>
&#x9;&#x9;&#x9;&#x9;<text transform="matrix(1 -2.094394e-03 2.094394e-03 1 261.1615 225.2491)" class="st1 st2 st7">136</text>
&#x9;&#x9;&#x9;&#x9;<text transform="matrix(1 -2.094394e-03 2.094394e-03 1 257.199 227.3891)" class="st1 st2 st7">137</text>
&#x9;&#x9;&#x9;&#x9;<text transform="matrix(1 -2.094394e-03 2.094394e-03 1 253.0998 229.7672)" class="st1 st2 st7">138</text>
&#x9;&#x9;&#x9;&#x9;<text transform="matrix(1 -2.094394e-03 2.094394e-03 1 248.6315 231.2711)" class="st1 st2 st7">139</text>
&#x9;&#x9;&#x9;&#x9;<text transform="matrix(1 -2.094394e-03 2.094394e-03 1 243.4007 233.0365)" class="st1 st2 st7">140</text>
&#x9;&#x9;&#x9;&#x9;<text transform="matrix(1 -2.094394e-03 2.094394e-03 1 238.8414 233.9287)" class="st1 st2 st7">141</text>
&#x9;&#x9;&#x9;&#x9;<text transform="matrix(1 -2.094394e-03 2.094394e-03 1 234.1202 234.6913)" class="st1 st2 st7">142</text>
&#x9;&#x9;&#x9;&#x9;<text transform="matrix(1 -2.094394e-03 2.094394e-03 1 229.1494 234.8142)" class="st1 st2 st7">143</text>
&#x9;&#x9;&#x9;&#x9;<text transform="matrix(1 -2.094394e-03 2.094394e-03 1 223.9183 235.0015)" class="st1 st2 st7">144</text>
&#x9;&#x9;&#x9;&#x9;<text transform="matrix(1 -2.094394e-03 2.094394e-03 1 218.8972 235.0013)" class="st1 st2 st7">145</text>
&#x9;&#x9;&#x9;&#x9;<text transform="matrix(1 -2.094394e-03 2.094394e-03 1 213.6375 235.0014)" class="st1 st2 st7">146</text>
&#x9;&#x9;&#x9;&#x9;<text transform="matrix(1 -2.094394e-03 2.094394e-03 1 208.4771 235.0012)" class="st1 st2 st7">147</text>
&#x9;&#x9;&#x9;&#x9;<text transform="matrix(1 -2.094394e-03 2.094394e-03 1 203.4281 235.0104)" class="st1 st2 st7">148</text>
&#x9;&#x9;&#x9;&#x9;<text transform="matrix(1 -2.094394e-03 2.094394e-03 1 198.5347 235.0014)" class="st1 st2 st7">149</text>
&#x9;&#x9;&#x9;&#x9;<text transform="matrix(1 -2.094394e-03 2.094394e-03 1 193.8004 235.0013)" class="st1 st2 st7">150</text>
&#x9;&#x9;&#x9;</g>
&#x9;&#x9;&#x9;<g id="DlamondClub">
&#x9;&#x9;&#x9;&#x9;<path id="DlamondClub_2" class="st0" d="M193.5,230.8H156l-0.2,5.9h38L193.5,230.8z"></path>
&#x9;&#x9;&#x9;&#x9;<text transform="matrix(1 0 0 1 158.753 235.099)" class="st1 st2 st8">Diamond Club</text>
&#x9;&#x9;&#x9;</g>
&#x9;&#x9;</g>
&#x9;&#x9;<g id="UpperTier">
&#x9;&#x9;&#x9;<path id="id_91" class="st0" d="M154.7,266.8c6.7,0.7,13.4,1,20.1,1v-31.2h-19L154.7,266.8z"></path>
&#x9;&#x9;&#x9;<path id="id_92" class="st0" d="M133.3,263.4c7.1,1.5,14.2,2.7,21.4,3.4l1.1-30.2h-19.5L133.3,263.4z"></path>
&#x9;&#x9;&#x9;<path id="id_93" class="st0" d="M104.7,254.6c9.3,3.7,18.9,6.6,28.6,8.7l2.9-26.8h-16.3c-3.4,0-6.8-0.3-10.1-0.8L104.7,254.6z"></path>
&#x9;&#x9;&#x9;<path id="id_94" class="st0" d="M88.1,247c5.4,2.9,10.9,5.4,16.6,7.7l5.1-18.8c-5-0.7-9.8-2-14.5-3.9L88.1,247z"></path>
&#x9;&#x9;&#x9;<path id="id_95" class="st0" d="M72.8,237.8c4.9,3.3,10,6.4,15.2,9.2l7.2-15c-4.4-1.7-8.7-3.9-12.6-6.5L72.8,237.8z"></path>
&#x9;&#x9;&#x9;<path id="id_96" class="st0" d="M59.5,227.6c4.3,3.6,8.7,7,13.3,10.2l9.7-12.3c-4-2.6-7.6-5.6-11-8.9L59.5,227.6z"></path>
&#x9;&#x9;&#x9;<path id="id_97" class="st0" d="M46.5,214.9c4.1,4.5,8.4,8.8,13,12.8l12.1-11c-3.4-3.4-6.4-7.1-9.1-11.1L46.5,214.9z"></path>
&#x9;&#x9;&#x9;<path id="id_98" class="st0" d="M35.3,200.3c3.4,5.1,7.1,10,11.2,14.5l16.1-9.3c-2.6-4-4.9-8.3-6.6-12.8L35.3,200.3z"></path>
&#x9;&#x9;&#x9;<path id="id_99" class="st0" d="M26,183c2.6,6,5.8,11.8,9.4,17.3l20.6-7.6c-1.8-4.6-3.1-9.4-3.8-14.2L26,183z"></path>
&#x9;&#x9;&#x9;<path id="id_100" class="st0" d="M19.8,163.8c1.5,6.6,3.5,13,6.2,19.1l26.1-4.5c-0.5-3.5-0.8-6.9-0.8-10.4v-6L19.8,163.8z"></path>
&#x9;&#x9;&#x9;<path id="id_101" class="st0" d="M51.3,162V142h-34v0.2c0,7.3,0.8,14.5,2.4,21.6L51.3,162z"></path>
&#x9;&#x9;&#x9;<path id="id_102" class="st0" d="M51.3,122V142h-34v-0.2c0-7.3,0.8-14.5,2.4-21.6L51.3,122z"></path>
&#x9;&#x9;&#x9;<path id="id_103" class="st0" d="M19.8,120.2c1.5-6.6,3.5-13,6.2-19.1l26.1,4.5c-0.5,3.5-0.8,6.9-0.8,10.4v6L19.8,120.2z"></path>
&#x9;&#x9;&#x9;<path id="id_104" class="st0" d="M26,101c2.6-6,5.8-11.8,9.4-17.3l20.6,7.6c-1.8,4.6-3.1,9.4-3.8,14.2L26,101z"></path>
&#x9;&#x9;&#x9;<path id="id_105" class="st0" d="M35.3,83.7c3.4-5.1,7.1-10,11.2-14.5l16.1,9.3c-2.6,4-4.9,8.3-6.6,12.8L35.3,83.7z"></path>
&#x9;&#x9;&#x9;<path id="id_106" class="st0" d="M46.5,69.2c4.1-4.5,8.4-8.8,13-12.8l12.1,11c-3.4,3.4-6.4,7.1-9.1,11.1L46.5,69.2z"></path>
&#x9;&#x9;&#x9;<path id="id_107" class="st0" d="M59.5,56.4c4.3-3.6,8.7-7,13.3-10.2l9.7,12.3c-4,2.6-7.6,5.6-11,8.9L59.5,56.4z"></path>
&#x9;&#x9;&#x9;<path id="id_108" class="st0" d="M72.8,46.2c4.9-3.3,10-6.4,15.2-9.2l7.2,15c-4.4,1.7-8.7,3.9-12.6,6.5L72.8,46.2z"></path>
&#x9;&#x9;&#x9;<path id="id_109" class="st0" d="M88.1,37c5.4-2.9,10.9-5.4,16.6-7.7l5.1,18.8c-5,0.7-9.8,2-14.5,3.9L88.1,37z"></path>
&#x9;&#x9;&#x9;<path id="id_110" class="st0" d="M104.7,29.4c9.3-3.7,18.9-6.6,28.6-8.7l2.9,26.8h-16.3c-3.4,0-6.8,0.3-10.1,0.8L104.7,29.4z"></path>
&#x9;&#x9;&#x9;<path id="id_111" class="st0" d="M133.3,20.6c7.1-1.5,14.2-2.7,21.4-3.4l1.1,30.2h-19.5L133.3,20.6z"></path>
&#x9;&#x9;&#x9;<path id="id_112" class="st0" d="M154.7,17.2c6.7-0.7,13.4-1,20.1-1v31.2h-19L154.7,17.2z"></path>
&#x9;&#x9;&#x9;<path id="id_113" class="st0" d="M194.8,17.2c-6.7-0.7-13.4-1-20.1-1v31.2h19L194.8,17.2z"></path>
&#x9;&#x9;&#x9;<path id="id_114" class="st0" d="M216.2,20.6c-7.1-1.5-14.2-2.7-21.4-3.4l-1.1,30.2h19.5L216.2,20.6z"></path>
&#x9;&#x9;&#x9;<path id="id_115" class="st0" d="M244.8,29.4c-9.3-3.7-18.9-6.6-28.6-8.7l-2.9,26.8h16.3c3.4,0,6.8,0.3,10.1,0.8L244.8,29.4z"></path>
&#x9;&#x9;&#x9;<path id="id_116" class="st0" d="M261.4,37c-5.4-2.9-10.9-5.4-16.6-7.7l-5.1,18.8c5,0.7,9.8,2,14.5,3.9L261.4,37z"></path>
&#x9;&#x9;&#x9;<path id="id_117" class="st0" d="M276.6,46.2c-4.9-3.3-10-6.4-15.2-9.2l-7.2,15c4.4,1.7,8.7,3.9,12.6,6.5L276.6,46.2z"></path>
&#x9;&#x9;&#x9;<path id="id_118" class="st0" d="M290,56.4c-4.3-3.6-8.7-7-13.3-10.2l-9.8,12.3c4,2.6,7.6,5.6,11,8.9L290,56.4z"></path>
&#x9;&#x9;&#x9;<path id="id_119" class="st0" d="M303,69.2c-4.1-4.5-8.4-8.8-13-12.8l-12.1,11c3.4,3.4,6.4,7.1,9.1,11.1L303,69.2z"></path>
&#x9;&#x9;&#x9;<path id="id_120" class="st0" d="M314.1,83.7c-3.4-5.1-7.1-10-11.2-14.5l-16.1,9.3c2.6,4,4.9,8.3,6.6,12.8L314.1,83.7z"></path>
&#x9;&#x9;&#x9;<path id="id_121" class="st0" d="M323.5,101c-2.6-6-5.8-11.8-9.4-17.3l-20.6,7.6c1.8,4.6,3.1,9.4,3.8,14.2L323.5,101z"></path>
&#x9;&#x9;&#x9;<path id="id_122" class="st0" d="M329.7,120.2c-1.5-6.6-3.5-13-6.2-19.1l-26.1,4.5c0.5,3.5,0.8,6.9,0.8,10.4v6L329.7,120.2z"></path>
&#x9;&#x9;&#x9;<path id="id_123" class="st0" d="M298.2,122V142h34v-0.2c0-7.3-0.8-14.5-2.4-21.6L298.2,122z"></path>
&#x9;&#x9;&#x9;<path id="id_124" class="st0" d="M298.2,162V142h34v0.2c0,7.3-0.8,14.5-2.4,21.6L298.2,162z"></path>
&#x9;&#x9;&#x9;<path id="id_125" class="st0" d="M329.7,163.8c-1.5,6.6-3.5,13-6.2,19.1l-26.1-4.5c0.5-3.5,0.8-6.9,0.8-10.4v-6L329.7,163.8z"></path>
&#x9;&#x9;&#x9;<path id="id_126" class="st0" d="M323.5,183c-2.6,6-5.8,11.8-9.4,17.3l-20.6-7.6c1.8-4.6,3.1-9.4,3.8-14.2L323.5,183z"></path>
&#x9;&#x9;&#x9;<path id="id_127" class="st0" d="M314.1,200.3c-3.4,5.1-7.1,10-11.2,14.5l-16.1-9.3c2.6-4,4.9-8.3,6.6-12.8L314.1,200.3z"></path>
&#x9;&#x9;&#x9;<path id="id_128" class="st0" d="M303,214.8c-4.1,4.5-8.4,8.8-13,12.8l-12.1-11c3.4-3.4,6.4-7.1,9.1-11.1L303,214.8z"></path>
&#x9;&#x9;&#x9;<path id="id_129" class="st0" d="M290,227.6c-4.3,3.6-8.7,7-13.3,10.2l-9.8-12.3c4-2.6,7.6-5.6,11-8.9L290,227.6z"></path>
&#x9;&#x9;&#x9;<path id="id_130" class="st0" d="M276.6,237.8c-4.9,3.3-10,6.4-15.2,9.2l-7.2-15c4.4-1.7,8.7-3.9,12.6-6.5L276.6,237.8z"></path>
&#x9;&#x9;&#x9;<path id="id_131" class="st0" d="M261.4,247c-5.4,2.9-10.9,5.4-16.6,7.7l-5.1-18.8c5-0.7,9.8-2,14.5-3.9L261.4,247z"></path>
&#x9;&#x9;&#x9;<path id="id_132" class="st0" d="M244.8,254.6c-9.3,3.7-18.9,6.6-28.6,8.7l-2.9-26.8h16.3c3.4,0,6.8-0.3,10.1-0.8L244.8,254.6z"></path>
&#x9;&#x9;&#x9;<path id="id_133" class="st0" d="M216.2,263.4c-7.1,1.5-14.2,2.7-21.4,3.4l-1.1-30.2h19.5L216.2,263.4z"></path>
&#x9;&#x9;&#x9;<path id="id_134" class="st0" d="M194.8,266.8c-6.7,0.7-13.4,1-20.1,1v-31.2h19L194.8,266.8z"></path>
&#x9;&#x9;&#x9;<g id="UpperTier_Numbers">
&#x9;&#x9;&#x9;&#x9;<text transform="matrix(1 -2.094394e-03 2.094394e-03 1 162.3559 255.2044)" class="st1 st2 st9">91</text>
&#x9;&#x9;&#x9;&#x9;<text transform="matrix(1 -2.094394e-03 2.094394e-03 1 162.3559 255.2044)" class="st10 st2 st9">91</text>
&#x9;&#x9;&#x9;&#x9;<text transform="matrix(1 -2.094394e-03 2.094394e-03 1 141.1066 254.1127)" class="st1 st2 st9">92</text>
&#x9;&#x9;&#x9;&#x9;<text transform="matrix(1 -2.094394e-03 2.094394e-03 1 141.1066 254.1127)" class="st10 st2 st9">92</text>
&#x9;&#x9;&#x9;&#x9;<text transform="matrix(1 -2.094394e-03 2.094394e-03 1 117.143 251.2227)" class="st1 st2 st9">93</text>
&#x9;&#x9;&#x9;&#x9;<text transform="matrix(1 -2.094394e-03 2.094394e-03 1 95.6657 245.1294)" class="st1 st2 st9">94</text>
&#x9;&#x9;&#x9;&#x9;<text transform="matrix(1 -2.094394e-03 2.094394e-03 1 80.6614 238.4907)" class="st1 st2 st9">95</text>
&#x9;&#x9;&#x9;&#x9;<text transform="matrix(1 -2.094394e-03 2.094394e-03 1 66.8392 229.695)" class="st1 st2 st9">96</text>
&#x9;&#x9;&#x9;&#x9;<text transform="matrix(1 -2.094394e-03 2.094394e-03 1 55.7721 218.6958)" class="st1 st2 st9">97</text>
&#x9;&#x9;&#x9;&#x9;<text transform="matrix(1 -2.094394e-03 2.094394e-03 1 46.5113 205.6772)" class="st1 st2 st9">98</text>
&#x9;&#x9;&#x9;&#x9;<text transform="matrix(1 -2.094394e-03 2.094394e-03 1 37.8636 191.107)" class="st1 st2 st9">99</text>
&#x9;&#x9;&#x9;&#x9;<text transform="matrix(1 -2.094394e-03 2.094394e-03 1 31.755 174.0562)" class="st1 st2 st9">100</text>
&#x9;&#x9;&#x9;&#x9;<text transform="matrix(1 -2.094394e-03 2.094394e-03 1 30.7697 155.4032)" class="st1 st2 st9">101</text>
&#x9;&#x9;&#x9;&#x9;<text transform="matrix(0.9999 1.378766e-02 -1.378766e-02 0.9999 30.2576 135.0713)" class="st1 st2 st9">102</text>
&#x9;&#x9;&#x9;&#x9;<text transform="matrix(0.9999 1.378766e-02 -1.378766e-02 0.9999 32.3277 115.6918)" class="st1 st2 st9">103</text>
&#x9;&#x9;&#x9;&#x9;<text transform="matrix(0.9999 1.378766e-02 -1.378766e-02 0.9999 36.2252 97.8795)" class="st1 st2 st9">104</text>
&#x9;&#x9;&#x9;&#x9;<text transform="matrix(0.9999 1.378766e-02 -1.378766e-02 0.9999 44.7551 82.7324)" class="st1 st2 st9">105</text>
&#x9;&#x9;&#x9;&#x9;<text transform="matrix(0.9999 1.378766e-02 -1.378766e-02 0.9999 53.9197 70.1206)" class="st1 st2 st9">106</text>
&#x9;&#x9;&#x9;&#x9;<text transform="matrix(0.9999 1.378766e-02 -1.378766e-02 0.9999 66.4166 59.6786)" class="st1 st2 st9">107</text>
&#x9;&#x9;&#x9;&#x9;<text transform="matrix(0.9999 1.378766e-02 -1.378766e-02 0.9999 79.1494 50.2461)" class="st1 st2 st9">108</text>
&#x9;&#x9;&#x9;&#x9;<text transform="matrix(0.9999 1.378766e-02 -1.378766e-02 0.9999 93.8299 43.9393)" class="st1 st2 st9">109</text>
&#x9;&#x9;&#x9;&#x9;<text transform="matrix(0.9999 1.378766e-02 -1.378766e-02 0.9999 116.2881 38.0393)" class="st1 st2 st9">110</text>
&#x9;&#x9;&#x9;&#x9;<text transform="matrix(0.9999 1.378766e-02 -1.378766e-02 0.9999 140.8453 34.6242)" class="st1 st2 st9">111</text>
&#x9;&#x9;&#x9;&#x9;<text transform="matrix(0.9999 1.378766e-02 -1.378766e-02 0.9999 160.423 34.6217)" class="st1 st2 st9">112</text>
&#x9;&#x9;&#x9;&#x9;<text transform="matrix(0.9999 1.378766e-02 -1.378766e-02 0.9999 180.0006 34.6217)" class="st1 st2 st9">113</text>
&#x9;&#x9;&#x9;&#x9;<text transform="matrix(0.9999 1.378766e-02 -1.378766e-02 0.9999 199.9386 34.6104)" class="st1 st2 st9">114</text>
&#x9;&#x9;&#x9;&#x9;<text transform="matrix(0.9999 1.378766e-02 -1.378766e-02 0.9999 199.9386 34.6104)" class="st11 st2 st9">114</text>
&#x9;&#x9;&#x9;&#x9;<text transform="matrix(0.9999 1.378766e-02 -1.378766e-02 0.9999 223.5571 38.0504)" class="st1 st2 st9">115</text>
&#x9;&#x9;&#x9;&#x9;<text transform="matrix(0.9999 1.378766e-02 -1.378766e-02 0.9999 244.6506 43.953)" class="st1 st2 st9">116</text>
&#x9;&#x9;&#x9;&#x9;<text transform="matrix(0.9999 1.378766e-02 -1.378766e-02 0.9999 260.2962 50.6743)" class="st1 st2 st9">117</text>
&#x9;&#x9;&#x9;&#x9;<text transform="matrix(0.9999 1.378766e-02 -1.378766e-02 0.9999 272.7669 59.0879)" class="st1 st2 st9">118</text>
&#x9;&#x9;&#x9;&#x9;<text transform="matrix(0.9999 1.378766e-02 -1.378766e-02 0.9999 284.6885 70.1997)" class="st1 st2 st9">119</text>
&#x9;&#x9;&#x9;&#x9;<text transform="matrix(0.9999 1.378766e-02 -1.378766e-02 0.9999 295.4152 82.9801)" class="st1 st2 st9">120</text>
&#x9;&#x9;&#x9;&#x9;<text transform="matrix(0.9999 1.378766e-02 -1.378766e-02 0.9999 304.091 98.2296)" class="st1 st2 st9">121</text>
&#x9;&#x9;&#x9;&#x9;<text transform="matrix(0.9999 1.378766e-02 -1.378766e-02 0.9999 308.4878 114.6856)" class="st1 st2 st9">122</text>
&#x9;&#x9;&#x9;&#x9;<text transform="matrix(0.9999 1.378766e-02 -1.378766e-02 0.9999 309.0223 134.4827)" class="st1 st2 st9">123</text>
&#x9;&#x9;&#x9;&#x9;<text transform="matrix(0.9999 1.378766e-02 -1.378766e-02 0.9999 309.096 154.2581)" class="st1 st2 st9">124</text>
&#x9;&#x9;&#x9;&#x9;<text transform="matrix(0.9999 1.378766e-02 -1.378766e-02 0.9999 307.5288 174.1596)" class="st1 st2 st9">125</text>
&#x9;&#x9;&#x9;&#x9;<text transform="matrix(0.9999 1.378766e-02 -1.378766e-02 0.9999 302.8206 190.6506)" class="st1 st2 st9">126</text>
&#x9;&#x9;&#x9;&#x9;<text transform="matrix(0.9999 1.378766e-02 -1.378766e-02 0.9999 295.3443 205.7535)" class="st1 st2 st9">127</text>
&#x9;&#x9;&#x9;&#x9;<text transform="matrix(0.9999 1.378766e-02 -1.378766e-02 0.9999 284.7557 218.6804)" class="st1 st2 st9">128</text>
&#x9;&#x9;&#x9;&#x9;<text transform="matrix(0.9999 1.378766e-02 -1.378766e-02 0.9999 272.6213 229.2936)" class="st1 st2 st9">129</text>
&#x9;&#x9;&#x9;&#x9;<text transform="matrix(0.9999 1.378766e-02 -1.378766e-02 0.9999 260.5024 238.3143)" class="st1 st2 st9">130</text>
&#x9;&#x9;&#x9;&#x9;<text transform="matrix(0.9999 1.378766e-02 -1.378766e-02 0.9999 246.9046 245.0663)" class="st1 st2 st9">131</text>
&#x9;&#x9;&#x9;&#x9;<text transform="matrix(0.9999 1.378766e-02 -1.378766e-02 0.9999 223.2508 251.1429)" class="st1 st2 st9">132</text>
&#x9;&#x9;&#x9;&#x9;<text transform="matrix(1 -2.094394e-03 2.094394e-03 1 199.9202 254.4789)" class="st1 st2 st9">133</text>
&#x9;&#x9;&#x9;&#x9;<text transform="matrix(1 -2.094394e-03 2.094394e-03 1 179.8567 255.2996)" class="st1 st2 st9">134</text>
&#x9;&#x9;&#x9;</g>
&#x9;&#x9;</g>
&#x9;&#x9;<g id="border">
&#x9;&#x9;&#x9;<g id="NORTH_BANK">
&#x9;&#x9;&#x9;&#x9;<text transform="matrix(0 -1 1 0 7.868 170.7598)" class="st12 st13 st14">NORTH BANK</text>
&#x9;&#x9;&#x9;</g>
&#x9;&#x9;&#x9;<g id="WEST">
&#x9;&#x9;&#x9;&#x9;<text transform="matrix(1 0 0 1 162.48 281.868)" class="st12 st13 st14">WEST </text>
&#x9;&#x9;&#x9;</g>
&#x9;&#x9;&#x9;<g id="EAST_STAND">
&#x9;&#x9;&#x9;&#x9;<text transform="matrix(1 0 0 1 148.478 7.868)" class="st12 st13 st14">EAST STAND</text>
&#x9;&#x9;&#x9;</g>
&#x9;&#x9;&#x9;<g id="CLOCK_END">
&#x9;&#x9;&#x9;&#x9;<text transform="matrix(0 1 -1 0 342.1328 117.2021)" class="st12 st13 st14">CLOCK END</text>
&#x9;&#x9;&#x9;</g>
&#x9;&#x9;</g>
&#x9;&#x9;<g id="field">
&#x9;&#x9;&#x9;
&#x9;&#x9;&#x9;&#x9;<linearGradient id="Vector_00000180368082064280970520000006763927141591195023_" gradientUnits="userSpaceOnUse" x1="99.1895" y1="143.9944" x2="250.254" y2="143.9944" gradientTransform="matrix(1 0 0 -1 0 286)">
&#x9;&#x9;&#x9;&#x9;<stop offset="0" style="stop-color:#339947"></stop>
&#x9;&#x9;&#x9;&#x9;<stop offset="1" style="stop-color:#5AC13D"></stop>
&#x9;&#x9;&#x9;</linearGradient>
&#x9;&#x9;&#x9;
&#x9;&#x9;&#x9;&#x9;<path id="Vector" style="fill:url(#Vector_00000180368082064280970520000006763927141591195023_);stroke:#FFFFFF;stroke-miterlimit:10;" d="&#xA;&#x9;&#x9;&#x9;&#x9;M225.3,192.2H124.1c-6.6,0-12.9-2.7-17.6-7.3c-4.7-4.7-7.3-11-7.3-17.6v-50.6c0-6.6,2.7-12.9,7.3-17.6c4.7-4.7,11-7.3,17.6-7.3&#xA;&#x9;&#x9;&#x9;&#x9;h101.2c6.6,0,12.9,2.7,17.6,7.3c4.7,4.7,7.3,11,7.3,17.6v50.6c0,6.6-2.6,13-7.3,17.6C238.3,189.6,231.9,192.2,225.3,192.2z"></path>
&#x9;&#x9;&#x9;<g id="Lines">
&#x9;&#x9;&#x9;&#x9;<path id="Vector_2" class="st16" d="M236.2,101.1H113.4v81.8h122.8V101.1z"></path>
&#x9;&#x9;&#x9;&#x9;<path id="Vector_3" class="st16" d="M132.9,122.7h-19.5v38.6h19.5V122.7z"></path>
&#x9;&#x9;&#x9;&#x9;<path id="Vector_4" class="st16" d="M236.2,123.2h-19.5v38.6h19.5V123.2z"></path>
&#x9;&#x9;&#x9;&#x9;<path id="Vector_5" class="st17" d="M120.2,131.1h-6.8v21.7h6.8V131.1z"></path>
&#x9;&#x9;&#x9;&#x9;<path id="Vector_6" class="st17" d="M216.7,132.2c-1.3,1.3-2.3,2.8-3,4.5c-0.7,1.7-1.1,3.5-1.1,5.3c0,1.8,0.4,3.6,1.1,5.3&#xA;&#x9;&#x9;&#x9;&#x9;&#x9;c0.7,1.7,1.7,3.2,3,4.5V132.2z"></path>
&#x9;&#x9;&#x9;&#x9;<path id="Vector_7" class="st17" d="M132.9,132.2c1.3,1.3,2.3,2.8,3,4.5c0.7,1.7,1.1,3.5,1.1,5.3c0,1.8-0.4,3.6-1.1,5.3&#xA;&#x9;&#x9;&#x9;&#x9;&#x9;c-0.7,1.7-1.7,3.2-3,4.5V132.2z"></path>
&#x9;&#x9;&#x9;&#x9;<path id="Vector_8" class="st17" d="M233.3,101.1c0,2.2,1.4,3.4,2.9,3.4"></path>
&#x9;&#x9;&#x9;&#x9;<path id="Vector_9" class="st17" d="M233.3,182.9c0-2.2,1.4-3.4,2.9-3.4"></path>
&#x9;&#x9;&#x9;&#x9;<path id="Vector_10" class="st18" d="M113.4,134.7h-4.4v13.7h4.4V134.7z"></path>
&#x9;&#x9;&#x9;&#x9;<path id="Vector_11" class="st18" d="M109.1,135.8h4.4"></path>
&#x9;&#x9;&#x9;&#x9;<path id="Vector_12" class="st18" d="M109.1,136.8h4.4"></path>
&#x9;&#x9;&#x9;&#x9;<path id="Vector_13" class="st18" d="M109.1,137.9h4.4"></path>
&#x9;&#x9;&#x9;&#x9;<path id="Vector_14" class="st18" d="M109.1,139h4.4"></path>
&#x9;&#x9;&#x9;&#x9;<path id="Vector_15" class="st18" d="M109.1,140h4.4"></path>
&#x9;&#x9;&#x9;&#x9;<path id="Vector_16" class="st18" d="M109.1,141h4.4"></path>
&#x9;&#x9;&#x9;&#x9;<path id="Vector_17" class="st18" d="M109.1,142.2h4.4"></path>
&#x9;&#x9;&#x9;&#x9;<path id="Vector_18" class="st18" d="M109.1,143.2h4.4"></path>
&#x9;&#x9;&#x9;&#x9;<path id="Vector_19" class="st18" d="M108.9,144.2h4.4"></path>
&#x9;&#x9;&#x9;&#x9;<path id="Vector_20" class="st18" d="M108.9,145.2h4.4"></path>
&#x9;&#x9;&#x9;&#x9;<path id="Vector_21" class="st18" d="M108.9,146.3h4.4"></path>
&#x9;&#x9;&#x9;&#x9;<path id="Vector_22" class="st18" d="M108.9,147.4h4.4"></path>
&#x9;&#x9;&#x9;&#x9;<path id="Vector_23" class="st18" d="M110,134.7v13.7"></path>
&#x9;&#x9;&#x9;&#x9;<path id="Vector_24" class="st18" d="M111.2,134.7v13.7"></path>
&#x9;&#x9;&#x9;&#x9;<path id="Vector_25" class="st18" d="M112.3,134.7v13.7"></path>
&#x9;&#x9;&#x9;&#x9;<path id="Vector_26" class="st17" d="M174.8,101v82"></path>
&#x9;&#x9;&#x9;&#x9;<path id="Vector_27" class="st17" d="M236.2,131.2h-6.8v21.7h6.8V131.2z"></path>
&#x9;&#x9;&#x9;&#x9;<path id="Vector_28" class="st18" d="M240.5,134.7h-4.4v13.7h4.4V134.7z"></path>
&#x9;&#x9;&#x9;&#x9;<path id="Vector_29" class="st18" d="M236.2,135.8h4.4"></path>
&#x9;&#x9;&#x9;&#x9;<path id="Vector_30" class="st18" d="M236.2,136.8h4.4"></path>
&#x9;&#x9;&#x9;&#x9;<path id="Vector_31" class="st18" d="M236.2,137.9h4.4"></path>
&#x9;&#x9;&#x9;&#x9;<path id="Vector_32" class="st18" d="M236.2,139h4.4"></path>
&#x9;&#x9;&#x9;&#x9;<path id="Vector_33" class="st18" d="M236.2,140h4.4"></path>
&#x9;&#x9;&#x9;&#x9;<path id="Vector_34" class="st18" d="M236.2,141h4.4"></path>
&#x9;&#x9;&#x9;&#x9;<path id="Vector_35" class="st18" d="M236.2,142.2h4.4"></path>
&#x9;&#x9;&#x9;&#x9;<path id="Vector_36" class="st18" d="M236.2,143.2h4.4"></path>
&#x9;&#x9;&#x9;&#x9;<path id="Vector_37" class="st18" d="M236.2,144.2h4.3"></path>
&#x9;&#x9;&#x9;&#x9;<path id="Vector_38" class="st18" d="M236.2,145.2h4.3"></path>
&#x9;&#x9;&#x9;&#x9;<path id="Vector_39" class="st18" d="M236.2,146.3h4.3"></path>
&#x9;&#x9;&#x9;&#x9;<path id="Vector_40" class="st18" d="M236.2,147.4h4.3"></path>
&#x9;&#x9;&#x9;&#x9;<path id="Vector_41" class="st18" d="M237.1,134.7v13.7"></path>
&#x9;&#x9;&#x9;&#x9;<path id="Vector_42" class="st18" d="M238.2,134.7v13.7"></path>
&#x9;&#x9;&#x9;&#x9;<path id="Vector_43" class="st18" d="M239.4,134.7v13.7"></path>
&#x9;&#x9;&#x9;&#x9;<path id="Vector_44" class="st17" d="M116.3,182.9c0-2.2-1.4-3.4-2.9-3.4"></path>
&#x9;&#x9;&#x9;&#x9;<path id="Vector_45" class="st17" d="M116.3,101.1c0,2.2-1.4,3.4-2.9,3.4"></path>
&#x9;&#x9;&#x9;&#x9;<circle id="Ellipse_304" class="st19" cx="174.8" cy="141.9" r="13.8"></circle>
&#x9;&#x9;&#x9;</g>
&#x9;&#x9;</g>
&#x9;&#x9;<g id="white">
&#x9;&#x9;&#x9;<path id="Vector_46" class="st20" d="M245,101.4l8.6-6.6l2.3,2.9l-8.8,6.9c0,0-0.7-1.1-1-1.5C245.9,102.6,245,101.4,245,101.4z"></path>
&#x9;&#x9;&#x9;<path id="Vector_47" class="st20" d="M176.7,192.2l-0.1,11.1l-3.7,0v-11.1H176.7z"></path>
&#x9;&#x9;</g>
&#x9;</g>
&#x9;<g id="Compass">
&#x9;&#x9;<path id="Vector_48" class="st12" d="M320.1,9.9v21.9l-5-4.7L320.1,9.9z"></path>
&#x9;&#x9;<path id="Vector_49" class="st12" d="M325.1,27.1l-5,4.7H342L325.1,27.1z"></path>
&#x9;&#x9;<path id="Vector_50" class="st12" d="M320.1,54.2V31.8l4.7,4.9L320.1,54.2z"></path>
&#x9;&#x9;<path id="Vector_51" class="st12" d="M298,31.8h22.1l-5,4.8L298,31.8z"></path>
&#x9;&#x9;<path id="Vector_52" class="st12" d="M309.1,43l6.1-6.5l1,2.6L309.1,43z"></path>
&#x9;&#x9;<path id="Vector_53" class="st12" d="M331.1,43l-3.5-6.5l-2.8,0.1L331.1,43z"></path>
&#x9;&#x9;<path id="Vector_54" class="st12" d="M325.1,27.1l5.9-6.3l-7.1,3.7L325.1,27.1z"></path>
&#x9;&#x9;<path id="Vector_55" class="st12" d="M315.1,27.1l-6.1-6.3l3.6,6.9L315.1,27.1z"></path>
&#x9;&#x9;<text transform="matrix(1 0 0 1 318.03 6.8262)" class="st12 st13 st21">E</text>
&#x9;&#x9;<text transform="matrix(1 0 0 1 345.219 33.9853)" class="st12 st13 st21">S</text>
&#x9;&#x9;<text transform="matrix(1 0 0 1 316.499 60.5377)" class="st12 st13 st21">W</text>
&#x9;&#x9;<text transform="matrix(1 0 0 1 292.053 33.9853)" class="st12 st13 st21">N</text>
&#x9;</g>
</g>
</svg>